<svg width="72" height="72" viewBox="0 0 72 72" fill="none" xmlns="http://www.w3.org/2000/svg">
<rect width="72" height="72" fill="#E8BD21"/>
<path d="M29.9978 53.0055C29.4458 53.0055 28.9978 52.5575 28.9978 52.0055V25.0055C28.9978 24.6015 29.2398 24.2375 29.6138 24.0815L53.6138 14.0815C53.9198 13.9555 54.2758 13.9875 54.5538 14.1735C54.8318 14.3595 54.9978 14.6715 54.9978 15.0055V45.0055C54.9978 45.5575 54.5498 46.0055 53.9978 46.0055C53.4458 46.0055 52.9978 45.5575 52.9978 45.0055V16.5055L30.9978 25.6715V52.0055C30.9978 52.5575 30.5498 53.0055 29.9978 53.0055Z" fill="white"/>
<path d="M29.9978 32.0055C29.6078 32.0055 29.2338 31.7755 29.0738 31.3895C28.8638 30.8795 29.1038 30.2935 29.6138 30.0815L53.6138 20.0815C54.1198 19.8775 54.7098 20.1095 54.9218 20.6215C55.1318 21.1315 54.8918 21.7175 54.3818 21.9295L30.3818 31.9295C30.2578 31.9795 30.1258 32.0055 29.9978 32.0055Z" fill="#967A13"/>
<path d="M22.85 57.9951C19.892 57.9951 17.642 56.6411 17.112 54.5471C16.852 53.5211 17.04 52.4411 17.654 51.4211C18.61 49.8291 20.526 48.5491 22.778 47.9971C23.57 47.8031 24.368 47.7051 25.152 47.7051C28.106 47.7051 30.36 49.0591 30.888 51.1531C31.148 52.1791 30.96 53.2591 30.346 54.2791C29.39 55.8711 27.474 57.1511 25.222 57.7031C24.43 57.8951 23.63 57.9951 22.85 57.9951ZM25.148 49.7051C24.524 49.7051 23.886 49.7851 23.252 49.9391C21.532 50.3631 20.044 51.3231 19.368 52.4511C19.136 52.8371 18.892 53.4291 19.05 54.0571C19.34 55.1991 20.902 55.9971 22.848 55.9971H22.85C23.472 55.9971 24.11 55.9171 24.744 55.7631C26.464 55.3391 27.952 54.3791 28.628 53.2511C28.86 52.8651 29.104 52.2731 28.946 51.6451C28.658 50.5011 27.096 49.7051 25.148 49.7051Z" fill="#967A13"/>
<path d="M46.85 51.9951C43.892 51.9951 41.642 50.6411 41.112 48.5471C40.852 47.5211 41.04 46.4411 41.654 45.4211C42.61 43.8291 44.526 42.5491 46.778 41.9971C47.57 41.8031 48.368 41.7051 49.152 41.7051C52.106 41.7051 54.36 43.0591 54.888 45.1531C55.148 46.1791 54.96 47.2591 54.346 48.2791C53.39 49.8711 51.474 51.1511 49.222 51.7031C48.43 51.8951 47.63 51.9951 46.85 51.9951ZM49.148 43.7051C48.524 43.7051 47.886 43.7851 47.252 43.9391C45.532 44.3631 44.044 45.3231 43.368 46.4511C43.136 46.8371 42.892 47.4291 43.05 48.0571C43.34 49.1991 44.902 49.9971 46.848 49.9971C47.47 49.9971 48.11 49.9171 48.744 49.7631C50.464 49.3391 51.952 48.3791 52.628 47.2511C52.86 46.8651 53.104 46.2731 52.946 45.6451C52.658 44.5011 51.096 43.7051 49.148 43.7051Z" fill="#967A13"/>
</svg>
