<svg width="12" height="12" viewBox="0 0 12 12" fill="none" xmlns="http://www.w3.org/2000/svg">
<path d="M6 0C7.125 0.015625 8.13281 0.289062 9.02344 0.820312C9.92969 1.35156 10.6484 2.07031 11.1797 2.97656C11.7109 3.86719 11.9844 4.875 12 6C11.9844 7.125 11.7109 8.13281 11.1797 9.02344C10.6484 9.92969 9.92969 10.6484 9.02344 11.1797C8.13281 11.7109 7.125 11.9844 6 12C4.875 11.9844 3.86719 11.7109 2.97656 11.1797C2.07031 10.6484 1.35156 9.92969 0.820312 9.02344C0.289062 8.13281 0.015625 7.125 0 6C0.015625 4.875 0.289062 3.86719 0.820312 2.97656C1.35156 2.07031 2.07031 1.35156 2.97656 0.820312C3.86719 0.289062 4.875 0.015625 6 0ZM6 10.875C7.375 10.8438 8.52344 10.3672 9.44531 9.44531C10.3672 8.52344 10.8438 7.375 10.875 6C10.8438 4.625 10.3672 3.47656 9.44531 2.55469C8.52344 1.63281 7.375 1.15625 6 1.125C4.625 1.15625 3.47656 1.63281 2.55469 2.55469C1.63281 3.47656 1.15625 4.625 1.125 6C1.15625 7.375 1.63281 8.52344 2.55469 9.44531C3.47656 10.3672 4.625 10.8438 6 10.875ZM6 7.875C6.20312 7.875 6.375 7.94531 6.51562 8.08594C6.67188 8.22656 6.75 8.40625 6.75 8.625C6.75 8.84375 6.67188 9.02344 6.51562 9.16406C6.375 9.30469 6.20312 9.375 6 9.375C5.53125 9.34375 5.28125 9.09375 5.25 8.625C5.25 8.40625 5.32031 8.22656 5.46094 8.08594C5.60156 7.94531 5.78125 7.875 6 7.875ZM6.77344 3C7.25781 3.01563 7.64844 3.17187 7.94531 3.46875C8.25781 3.78125 8.41406 4.17188 8.41406 4.64062C8.39844 5.23438 8.13281 5.70312 7.61719 6.04688L6.5625 6.70312V6.75C6.53125 7.09375 6.34375 7.28125 6 7.3125C5.65625 7.28125 5.46875 7.09375 5.4375 6.75V6.375C5.4375 6.17188 5.53125 6.00781 5.71875 5.88281L7.05469 5.0625C7.22656 4.96875 7.3125 4.82812 7.3125 4.64062C7.28125 4.32812 7.09375 4.15625 6.75 4.125H5.55469C5.25781 4.15625 5.09375 4.32812 5.0625 4.64062C5.03125 4.98438 4.84375 5.17188 4.5 5.20312C4.15625 5.17188 3.96875 4.98438 3.9375 4.64062C3.95312 4.17188 4.10938 3.78125 4.40625 3.46875C4.71875 3.17187 5.10938 3.01563 5.57812 3H6.77344Z" fill="black"/>
</svg>
