<svg width="24" height="24" viewBox="0 0 24 24" fill="none" xmlns="http://www.w3.org/2000/svg">
<path d="M21.2344 0C21.9219 0.0625 22.2969 0.4375 22.3594 1.125C22.2969 1.8125 21.9219 2.1875 21.2344 2.25H2.48438C1.79688 2.1875 1.42188 1.8125 1.35938 1.125C1.42188 0.4375 1.79688 0.0625 2.48438 0H21.2344ZM18.9844 15.75C18.9219 17.125 18.25 18.2812 16.9688 19.2188C15.6562 20.125 14.0156 20.5938 12.0469 20.625C10.0781 20.5938 8.4375 20.125 7.125 19.2188C5.84375 18.2812 5.17188 17.125 5.10938 15.75C5.17188 14.375 5.84375 13.2188 7.125 12.2812C8.4375 11.375 10.0781 10.9062 12.0469 10.875C14.0156 10.9062 15.6562 11.375 16.9688 12.2812C18.25 13.2188 18.9219 14.375 18.9844 15.75ZM11.8594 17.25C12.2969 17.25 12.6562 17.1406 12.9375 16.9219C13.2188 16.7031 13.3594 16.4375 13.3594 16.125C13.3594 15.8125 13.2188 15.5469 12.9375 15.3281C12.6562 15.1094 12.2969 15 11.8594 15C11.4219 15 11.0625 15.1094 10.7812 15.3281C10.5 15.5469 10.3594 15.8125 10.3594 16.125C10.3594 16.4375 10.5 16.7031 10.7812 16.9219C11.0625 17.1406 11.4219 17.25 11.8594 17.25ZM0.140625 10.875C0.046875 9.96875 0.28125 9.1875 0.84375 8.53125C1.4375 7.875 2.20312 7.53125 3.14062 7.5H20.5781C21.5156 7.53125 22.2812 7.875 22.875 8.53125C23.4375 9.1875 23.6719 9.96875 23.5781 10.875L22.1719 21.375C22.0781 22.1562 21.75 22.7812 21.1875 23.25C20.6562 23.75 20 24 19.2188 24H4.5C3.71875 24 3.0625 23.75 2.53125 23.25C1.96875 22.7812 1.64062 22.1562 1.54688 21.375L0.140625 10.875ZM3.14062 9.75C2.60938 9.8125 2.35938 10.0938 2.39062 10.5938L3.75 21.0938C3.84375 21.5 4.09375 21.7188 4.5 21.75H19.2188C19.625 21.7188 19.875 21.5 19.9688 21.0938L21.3281 10.5938C21.3594 10.0938 21.1094 9.8125 20.5781 9.75H3.14062ZM0.609375 4.875C0.671875 4.1875 1.04688 3.8125 1.73438 3.75H21.9844C22.6719 3.8125 23.0469 4.1875 23.1094 4.875C23.0469 5.5625 22.6719 5.9375 21.9844 6H1.73438C1.04688 5.9375 0.671875 5.5625 0.609375 4.875Z" fill="black"/>
</svg>
