<svg width="11" height="7" viewBox="0 0 11 7" fill="none" xmlns="http://www.w3.org/2000/svg">
<path d="M0 0.9375C0 0.671875 0.09375 0.453125 0.28125 0.28125C0.453125 0.09375 0.671875 0 0.9375 0H2.0625C2.32812 0 2.54688 0.09375 2.71875 0.28125C2.90625 0.453125 3 0.671875 3 0.9375V2.0625C3 2.32812 2.90625 2.54688 2.71875 2.71875C2.54688 2.90625 2.32812 3 2.0625 3H0.9375C0.671875 3 0.453125 2.90625 0.28125 2.71875C0.09375 2.54688 0 2.32812 0 2.0625V0.9375ZM0.9375 2.0625H2.0625V0.9375H0.9375V2.0625ZM0 4.6875C0 4.42188 0.09375 4.20312 0.28125 4.03125C0.453125 3.84375 0.671875 3.75 0.9375 3.75H2.0625C2.32812 3.75 2.54688 3.84375 2.71875 4.03125C2.90625 4.20312 3 4.42188 3 4.6875V5.8125C3 6.07812 2.90625 6.29688 2.71875 6.46875C2.54688 6.65625 2.32812 6.75 2.0625 6.75H0.9375C0.671875 6.75 0.453125 6.65625 0.28125 6.46875C0.09375 6.29688 0 6.07812 0 5.8125V4.6875ZM0.9375 5.8125H2.0625V4.6875H0.9375V5.8125ZM5.8125 0C6.07812 0 6.29688 0.09375 6.46875 0.28125C6.65625 0.453125 6.75 0.671875 6.75 0.9375V2.0625C6.75 2.32812 6.65625 2.54688 6.46875 2.71875C6.29688 2.90625 6.07812 3 5.8125 3H4.6875C4.42188 3 4.20312 2.90625 4.03125 2.71875C3.84375 2.54688 3.75 2.32812 3.75 2.0625V0.9375C3.75 0.671875 3.84375 0.453125 4.03125 0.28125C4.20312 0.09375 4.42188 0 4.6875 0H5.8125ZM5.8125 0.9375H4.6875V2.0625H5.8125V0.9375ZM3.75 4.6875C3.75 4.42188 3.84375 4.20312 4.03125 4.03125C4.20312 3.84375 4.42188 3.75 4.6875 3.75H5.8125C6.07812 3.75 6.29688 3.84375 6.46875 4.03125C6.65625 4.20312 6.75 4.42188 6.75 4.6875V5.8125C6.75 6.07812 6.65625 6.29688 6.46875 6.46875C6.29688 6.65625 6.07812 6.75 5.8125 6.75H4.6875C4.42188 6.75 4.20312 6.65625 4.03125 6.46875C3.84375 6.29688 3.75 6.07812 3.75 5.8125V4.6875ZM4.6875 5.8125H5.8125V4.6875H4.6875V5.8125ZM9.5625 0C9.82812 0 10.0469 0.09375 10.2188 0.28125C10.4062 0.453125 10.5 0.671875 10.5 0.9375V2.0625C10.5 2.32812 10.4062 2.54688 10.2188 2.71875C10.0469 2.90625 9.82812 3 9.5625 3H8.4375C8.17188 3 7.95312 2.90625 7.78125 2.71875C7.59375 2.54688 7.5 2.32812 7.5 2.0625V0.9375C7.5 0.671875 7.59375 0.453125 7.78125 0.28125C7.95312 0.09375 8.17188 0 8.4375 0H9.5625ZM9.5625 0.9375H8.4375V2.0625H9.5625V0.9375ZM7.5 4.6875C7.5 4.42188 7.59375 4.20312 7.78125 4.03125C7.95312 3.84375 8.17188 3.75 8.4375 3.75H9.5625C9.82812 3.75 10.0469 3.84375 10.2188 4.03125C10.4062 4.20312 10.5 4.42188 10.5 4.6875V5.8125C10.5 6.07812 10.4062 6.29688 10.2188 6.46875C10.0469 6.65625 9.82812 6.75 9.5625 6.75H8.4375C8.17188 6.75 7.95312 6.65625 7.78125 6.46875C7.59375 6.29688 7.5 6.07812 7.5 5.8125V4.6875ZM8.4375 5.8125H9.5625V4.6875H8.4375V5.8125Z" fill="black"/>
</svg>
