<svg width="31" height="25" viewBox="0 0 31 25" fill="none" xmlns="http://www.w3.org/2000/svg">
<path d="M22.3125 4.73438C22 4.73438 21.7344 4.625 21.5156 4.40625C21.2969 4.1875 21.1875 3.92188 21.1875 3.60938C21.25 2.92187 21.625 2.54687 22.3125 2.48438C23 2.54687 23.375 2.92187 23.4375 3.60938C23.375 4.29688 23 4.67188 22.3125 4.73438ZM24.5625 2.48438C24.25 2.48438 23.9844 2.375 23.7656 2.15625C23.5469 1.9375 23.4375 1.67188 23.4375 1.35938C23.5 0.671875 23.875 0.296875 24.5625 0.234375C25.25 0.296875 25.625 0.671875 25.6875 1.35938C25.625 2.04688 25.25 2.42188 24.5625 2.48438ZM22.7812 9.28125C23.375 9.96875 23.8125 10.7812 24.0938 11.7188C24.5 13.5312 24.125 15.0625 22.9688 16.3125C22.7812 16.5 22.5781 16.6562 22.3594 16.7812C22.2344 16.75 22.1094 16.7344 21.9844 16.7344C20.8906 16.7969 20.0625 17.2344 19.5 18.0469C18.9375 18.8594 18.8281 19.7812 19.1719 20.8125C18.9531 21.5312 18.5625 22.1719 18 22.7344C16.9688 23.7344 15.7031 24.2344 14.2031 24.2344C13.0781 24.2344 11.9531 23.9375 10.8281 23.3438L10.5469 23.7656C10.5156 23.7969 10.4844 23.8281 10.4531 23.8594C10.3906 23.9531 10.2969 24.0312 10.1719 24.0938C10.1406 24.125 10.0938 24.1406 10.0312 24.1406C9.9375 24.1719 9.82812 24.2031 9.70312 24.2344C9.70312 24.2344 9.6875 24.2344 9.65625 24.2344C9.59375 24.2344 9.53125 24.2188 9.46875 24.1875C9.4375 24.1875 9.42188 24.1875 9.42188 24.1875C9.39062 24.1875 9.34375 24.1875 9.28125 24.1875C9.125 24.125 9 24.0312 8.90625 23.9062L6.51562 21.5625C6.26562 21.3125 6.15625 21.0156 6.1875 20.6719C6.21875 20.3594 6.375 20.1094 6.65625 19.9219L7.125 19.6406C6.46875 18.3594 6.17188 17.0625 6.23438 15.75C6.32812 14.4688 6.82812 13.375 7.73438 12.4688C8.26562 11.9062 8.90625 11.5156 9.65625 11.2969C10 11.4219 10.3594 11.4844 10.7344 11.4844C11.6406 11.4844 12.3906 11.1406 12.9844 10.4531C13.5781 9.76562 13.8125 8.96875 13.6875 8.0625C13.8125 7.875 13.9688 7.6875 14.1562 7.5C14.6562 7 15.2031 6.67187 15.7969 6.51562C16.3594 6.32812 16.8906 6.23438 17.3906 6.23438C17.8281 6.23438 18.2812 6.28125 18.75 6.375C19.6562 6.625 20.4688 7.0625 21.1875 7.6875L21.4688 7.96875L28.9688 0.46875C29.3125 0.15625 29.6562 0.15625 30 0.46875C30.3125 0.8125 30.3125 1.15625 30 1.5L22.5 9L22.7812 9.28125ZM9.60938 22.5L12.0938 18.7031L11.7656 18.375L8.01562 20.8594L9.60938 22.5ZM21.8906 15.2344C22.6406 14.4219 22.875 13.375 22.5938 12.0938C22.4688 11.5 22.1719 10.9219 21.7031 10.3594L21.4688 10.0781L16.5 15C16.3438 15.1562 16.1719 15.2344 15.9844 15.2344C15.7969 15.2344 15.625 15.1562 15.4688 15C15.1562 14.6562 15.1562 14.3125 15.4688 13.9688L20.3906 9L20.1094 8.76562C19.5469 8.29688 18.9688 8 18.375 7.875C18.0625 7.78125 17.7344 7.73438 17.3906 7.73438C16.5156 7.73438 15.7969 8 15.2344 8.53125C15.2031 9.625 14.8281 10.5938 14.1094 11.4375C13.5469 12.0625 12.8906 12.5 12.1406 12.75C11.3594 13 10.5625 13.0312 9.75 12.8438C9.40625 13 9.09375 13.2188 8.8125 13.5C8.1875 14.1562 7.82812 14.9531 7.73438 15.8906C7.67188 16.8281 7.89062 17.7969 8.39062 18.7969L11.2031 16.9219C11.2969 16.8594 11.4062 16.8125 11.5312 16.7812C11.5625 16.7812 11.5938 16.7812 11.625 16.7812C11.6875 16.75 11.75 16.7344 11.8125 16.7344C11.8438 16.7344 11.8594 16.7344 11.8594 16.7344C12.1094 16.7656 12.3438 16.875 12.5625 17.0625L13.4062 17.9062C13.7812 18.3125 13.8281 18.7656 13.5469 19.2656L11.6719 22.125C12.5156 22.5312 13.3594 22.7344 14.2031 22.7344C14.5781 22.7344 15.0156 22.6719 15.5156 22.5469C16.0156 22.3906 16.5 22.0938 16.9688 21.6562C17.25 21.375 17.4688 21.0625 17.625 20.7188C17.3125 19.3438 17.5938 18.0938 18.4688 16.9688C19.3438 15.875 20.4844 15.2969 21.8906 15.2344ZM29.0625 4.73438C29.7812 4.79687 30.1719 5.17187 30.2344 5.85938C30.1406 6.54688 29.75 6.92188 29.0625 6.98438C28.375 6.92188 28 6.54688 27.9375 5.85938C28 5.17187 28.375 4.79687 29.0625 4.73438ZM26.8125 6.98438C27.5312 7.04687 27.9062 7.42187 27.9375 8.10938C27.875 8.79688 27.5 9.17188 26.8125 9.23438C26.125 9.17188 25.75 8.79688 25.6875 8.10938C25.75 7.42187 26.125 7.04687 26.8125 6.98438ZM16.5 0.46875C16.8125 0.8125 16.8125 1.15625 16.5 1.5L1.5 16.5C1.34375 16.6562 1.17188 16.7344 0.984375 16.7344C0.796875 16.7344 0.625 16.6562 0.46875 16.5C0.15625 16.1562 0.15625 15.8125 0.46875 15.4688L15.4688 0.46875C15.8125 0.15625 16.1562 0.15625 16.5 0.46875Z" fill="black"/>
</svg>
