<svg width="24" height="24" viewBox="0 0 24 24" fill="none" xmlns="http://www.w3.org/2000/svg">
<path d="M19.5 16.5C19.0312 16.4688 18.7812 16.2188 18.75 15.75C18.7812 15.2812 19.0312 15.0312 19.5 15C19.9688 15.0312 20.2188 15.2812 20.25 15.75C20.2188 16.2188 19.9688 16.4688 19.5 16.5ZM16.5 16.5C16.0312 16.4688 15.7812 16.2188 15.75 15.75C15.7812 15.2812 16.0312 15.0312 16.5 15C16.9688 15.0312 17.2188 15.2812 17.25 15.75C17.2188 16.2188 16.9688 16.4688 16.5 16.5ZM18 18.75C17.5312 18.7188 17.2812 18.4688 17.25 18C17.2812 17.5312 17.5312 17.2812 18 17.25C18.4688 17.2812 18.7188 17.5312 18.75 18C18.7188 18.4688 18.4688 18.7188 18 18.75ZM13.5 16.5C13.0312 16.4688 12.7812 16.2188 12.75 15.75C12.7812 15.2812 13.0312 15.0312 13.5 15C13.9688 15.0312 14.2188 15.2812 14.25 15.75C14.2188 16.2188 13.9688 16.4688 13.5 16.5ZM15 18.75C14.5312 18.7188 14.2812 18.4688 14.25 18C14.2812 17.5312 14.5312 17.2812 15 17.25C15.4688 17.2812 15.7188 17.5312 15.75 18C15.7188 18.4688 15.4688 18.7188 15 18.75ZM7.5 19.5C7.96875 19.5312 8.21875 19.7812 8.25 20.25C8.21875 20.7188 7.96875 20.9688 7.5 21C7.03125 20.9688 6.78125 20.7188 6.75 20.25C6.78125 19.7812 7.03125 19.5312 7.5 19.5ZM19.5 19.5C19.9688 19.5312 20.2188 19.7812 20.25 20.25C20.2188 20.7188 19.9688 20.9688 19.5 21C19.0312 20.9688 18.7812 20.7188 18.75 20.25C18.7812 19.7812 19.0312 19.5312 19.5 19.5ZM10.5 19.5C10.9688 19.5312 11.2188 19.7812 11.25 20.25C11.2188 20.7188 10.9688 20.9688 10.5 21C10.0312 20.9688 9.78125 20.7188 9.75 20.25C9.78125 19.7812 10.0312 19.5312 10.5 19.5ZM12 18.75C11.5312 18.7188 11.2812 18.4688 11.25 18C11.2812 17.5312 11.5312 17.2812 12 17.25C12.4688 17.2812 12.7188 17.5312 12.75 18C12.7188 18.4688 12.4688 18.7188 12 18.75ZM13.5 19.5C13.9688 19.5312 14.2188 19.7812 14.25 20.25C14.2188 20.7188 13.9688 20.9688 13.5 21C13.0312 20.9688 12.7812 20.7188 12.75 20.25C12.7812 19.7812 13.0312 19.5312 13.5 19.5ZM16.5 19.5C16.9688 19.5312 17.2188 19.7812 17.25 20.25C17.2188 20.7188 16.9688 20.9688 16.5 21C16.0312 20.9688 15.7812 20.7188 15.75 20.25C15.7812 19.7812 16.0312 19.5312 16.5 19.5ZM10.5 16.5C10.0312 16.4688 9.78125 16.2188 9.75 15.75C9.78125 15.2812 10.0312 15.0312 10.5 15C10.9688 15.0312 11.2188 15.2812 11.25 15.75C11.2188 16.2188 10.9688 16.4688 10.5 16.5ZM21.75 3C22.375 3.03125 22.9062 3.25 23.3438 3.65625C23.75 4.09375 23.9688 4.625 24 5.25V21.75C23.9688 22.375 23.75 22.9062 23.3438 23.3438C22.9062 23.75 22.375 23.9688 21.75 24H2.25C1.625 23.9688 1.09375 23.75 0.65625 23.3438C0.25 22.9062 0.03125 22.375 0 21.75V5.25C0.03125 4.625 0.25 4.09375 0.65625 3.65625C1.09375 3.25 1.625 3.03125 2.25 3H5.85938C6.54688 2.3125 7.42188 1.65625 8.48438 1.03125C9.54688 0.375 10.7188 0.03125 12 0C13.2812 0.03125 14.4531 0.375 15.5156 1.03125C16.5781 1.65625 17.4531 2.3125 18.1406 3H21.75ZM12 1.5C11.2812 1.5 10.6094 1.65625 9.98438 1.96875C9.32812 2.25 8.71875 2.59375 8.15625 3H15.8438C15.2812 2.59375 14.6719 2.25 14.0156 1.96875C13.3906 1.65625 12.7188 1.5 12 1.5ZM22.5 21.75V13.5H1.5V21.75C1.53125 22.2188 1.78125 22.4688 2.25 22.5H21.75C22.2188 22.4688 22.4688 22.2188 22.5 21.75ZM22.5 12V5.25C22.4688 4.78125 22.2188 4.53125 21.75 4.5H2.25C1.78125 4.53125 1.53125 4.78125 1.5 5.25V12H22.5ZM4.5 16.5C4.03125 16.4688 3.78125 16.2188 3.75 15.75C3.78125 15.2812 4.03125 15.0312 4.5 15C4.96875 15.0312 5.21875 15.2812 5.25 15.75C5.21875 16.2188 4.96875 16.4688 4.5 16.5ZM4.5 21C4.03125 20.9688 3.78125 20.7188 3.75 20.25C3.78125 19.7812 4.03125 19.5312 4.5 19.5C4.96875 19.5312 5.21875 19.7812 5.25 20.25C5.21875 20.7188 4.96875 20.9688 4.5 21ZM7.5 16.5C7.03125 16.4688 6.78125 16.2188 6.75 15.75C6.78125 15.2812 7.03125 15.0312 7.5 15C7.96875 15.0312 8.21875 15.2812 8.25 15.75C8.21875 16.2188 7.96875 16.4688 7.5 16.5ZM9 18.75C8.53125 18.7188 8.28125 18.4688 8.25 18C8.28125 17.5312 8.53125 17.2812 9 17.25C9.46875 17.2812 9.71875 17.5312 9.75 18C9.71875 18.4688 9.46875 18.7188 9 18.75ZM6 18.75C5.53125 18.7188 5.28125 18.4688 5.25 18C5.28125 17.5312 5.53125 17.2812 6 17.25C6.46875 17.2812 6.71875 17.5312 6.75 18C6.71875 18.4688 6.46875 18.7188 6 18.75ZM4.5 7.125C5.1875 7.1875 5.5625 7.5625 5.625 8.25C5.5625 8.9375 5.1875 9.3125 4.5 9.375C3.8125 9.3125 3.4375 8.9375 3.375 8.25C3.4375 7.5625 3.8125 7.1875 4.5 7.125ZM9 7.125C9.6875 7.1875 10.0625 7.5625 10.125 8.25C10.0625 8.9375 9.6875 9.3125 9 9.375C8.3125 9.3125 7.9375 8.9375 7.875 8.25C7.9375 7.5625 8.3125 7.1875 9 7.125ZM15 7.125C15.6875 7.1875 16.0625 7.5625 16.125 8.25C16.0625 8.9375 15.6875 9.3125 15 9.375C14.3125 9.3125 13.9375 8.9375 13.875 8.25C13.9375 7.5625 14.3125 7.1875 15 7.125ZM19.5 7.125C20.1875 7.1875 20.5625 7.5625 20.625 8.25C20.5625 8.9375 20.1875 9.3125 19.5 9.375C18.8125 9.3125 18.4375 8.9375 18.375 8.25C18.4375 7.5625 18.8125 7.1875 19.5 7.125Z" fill="black"/>
</svg>
