<svg width="25" height="22" viewBox="0 0 25 22" fill="none" xmlns="http://www.w3.org/2000/svg">
<path d="M19.4531 4.21875C20.7969 4.625 21.875 5.1875 22.6875 5.90625C23.5 6.59375 23.9219 7.42188 23.9531 8.39062V15.9375C23.8594 17.4375 22.6875 18.6719 20.4375 19.6406C18.1562 20.6406 15.3281 21.1562 11.9531 21.1875C8.57812 21.1562 5.76562 20.6406 3.51562 19.6406C1.26562 18.6406 0.09375 17.375 0 15.8438V8.39062C0.03125 7.20312 0.640625 6.21875 1.82812 5.4375C3.01562 4.6875 4.51562 4.125 6.32812 3.75C8.14062 3.375 10.0312 3.1875 12 3.1875C13.875 3.1875 15.6875 3.35938 17.4375 3.70312L22.875 0.28125C23.25 0.09375 23.5781 0.171875 23.8594 0.515625C24.0781 0.921875 24.0156 1.26562 23.6719 1.54688L19.4531 4.21875ZM4.5 18.4688V12.6562C3.28125 12.25 2.28125 11.75 1.5 11.1562V15.9375C1.53125 16.7812 2.53125 17.625 4.5 18.4688ZM11.25 19.6875V13.6875C9.40625 13.625 7.65625 13.4062 6 13.0312V18.9375C7.46875 19.3438 9.21875 19.5938 11.25 19.6875ZM18 18.8906V13.0312C16.3438 13.4062 14.5938 13.625 12.75 13.6875V19.6406C14.7812 19.5781 16.5312 19.3281 18 18.8906ZM22.5 15.9375V11.1562C21.7188 11.75 20.7188 12.25 19.5 12.6562V18.4219C21.4688 17.6094 22.4688 16.7812 22.5 15.9375ZM11.9531 12.1875C14.9531 12.1562 17.4375 11.7812 19.4062 11.0625C21.4062 10.3438 22.4375 9.46875 22.5 8.4375C22.4688 7.75 22.0312 7.14062 21.1875 6.60938C20.3125 6.07813 19.1562 5.64062 17.7188 5.29688L11.6719 9.04688C11.2344 9.23438 10.8906 9.15625 10.6406 8.8125C10.4219 8.40625 10.5 8.0625 10.875 7.78125L15.5156 4.875C14.3281 4.75 13.1562 4.6875 12 4.6875C9.03125 4.71875 6.5625 5.09375 4.59375 5.8125C2.59375 6.5 1.5625 7.375 1.5 8.4375C1.5625 9.46875 2.57812 10.3438 4.54688 11.0625C6.54688 11.7812 9.01562 12.1562 11.9531 12.1875Z" fill="black"/>
</svg>
