<svg width="27" height="18" viewBox="0 0 27 18" fill="none" xmlns="http://www.w3.org/2000/svg">
<path d="M24 0C24.8438 0.03125 25.5469 0.328125 26.1094 0.890625C26.6719 1.45312 26.9688 2.15625 27 3V15C26.9688 15.8438 26.6719 16.5469 26.1094 17.1094C25.5469 17.6719 24.8438 17.9688 24 18H3C2.15625 17.9688 1.45312 17.6719 0.890625 17.1094C0.328125 16.5469 0.03125 15.8438 0 15V3C0.03125 2.15625 0.328125 1.45312 0.890625 0.890625C1.45312 0.328125 2.15625 0.03125 3 0H24ZM6 16.5V12.75H5.25C4.78125 12.7188 4.53125 12.4688 4.5 12V7.5H1.5V15C1.5 15.4375 1.64062 15.7969 1.92188 16.0781C2.20312 16.3594 2.5625 16.5 3 16.5H6ZM12.75 16.5V12.75H12C11.5312 12.7188 11.2812 12.4688 11.25 12V7.5H9V12C8.96875 12.4688 8.71875 12.7188 8.25 12.75H7.5V16.5H12.75ZM6 11.25H7.5V7.5H6V11.25ZM19.5 16.5V12.75H18.75C18.2812 12.7188 18.0312 12.4688 18 12V7.5H15.75V12C15.7188 12.4688 15.4688 12.7188 15 12.75H14.25V16.5H19.5ZM12.75 11.25H14.25V7.5H12.75V11.25ZM25.5 15V7.5H22.5V12C22.4688 12.4688 22.2188 12.7188 21.75 12.75H21V16.5H24C24.4375 16.5 24.7969 16.3594 25.0781 16.0781C25.3594 15.7969 25.5 15.4375 25.5 15ZM19.5 11.25H21V7.5H19.5V11.25ZM25.5 6V3C25.5 2.5625 25.3594 2.20312 25.0781 1.92188C24.7969 1.64062 24.4375 1.5 24 1.5H3C2.5625 1.5 2.20312 1.64062 1.92188 1.92188C1.64062 2.20312 1.5 2.5625 1.5 3V6H25.5Z" fill="black"/>
</svg>
