<svg width="24" height="24" viewBox="0 0 24 24" fill="none" xmlns="http://www.w3.org/2000/svg">
<path d="M18 15.75C17.5312 15.7188 17.2812 15.4688 17.25 15C17.2812 14.5312 17.5312 14.2812 18 14.25C18.4688 14.2812 18.7188 14.5312 18.75 15C18.7188 15.4688 18.4688 15.7188 18 15.75ZM15 15.75C14.5312 15.7188 14.2812 15.4688 14.25 15C14.2812 14.5312 14.5312 14.2812 15 14.25C15.4688 14.2812 15.7188 14.5312 15.75 15C15.7188 15.4688 15.4688 15.7188 15 15.75ZM19.5 18C19.0312 17.9688 18.7812 17.7188 18.75 17.25C18.7812 16.7812 19.0312 16.5312 19.5 16.5C19.9688 16.5312 20.2188 16.7812 20.25 17.25C20.2188 17.7188 19.9688 17.9688 19.5 18ZM16.5 18C16.0312 17.9688 15.7812 17.7188 15.75 17.25C15.7812 16.7812 16.0312 16.5312 16.5 16.5C16.9688 16.5312 17.2188 16.7812 17.25 17.25C17.2188 17.7188 16.9688 17.9688 16.5 18ZM6 18.75C6.46875 18.7812 6.71875 19.0312 6.75 19.5C6.71875 19.9688 6.46875 20.2188 6 20.25C5.53125 20.2188 5.28125 19.9688 5.25 19.5C5.28125 19.0312 5.53125 18.7812 6 18.75ZM9 18.75C9.46875 18.7812 9.71875 19.0312 9.75 19.5C9.71875 19.9688 9.46875 20.2188 9 20.25C8.53125 20.2188 8.28125 19.9688 8.25 19.5C8.28125 19.0312 8.53125 18.7812 9 18.75ZM13.5 18C13.0312 17.9688 12.7812 17.7188 12.75 17.25C12.7812 16.7812 13.0312 16.5312 13.5 16.5C13.9688 16.5312 14.2188 16.7812 14.25 17.25C14.2188 17.7188 13.9688 17.9688 13.5 18ZM18 18.75C18.4688 18.7812 18.7188 19.0312 18.75 19.5C18.7188 19.9688 18.4688 20.2188 18 20.25C17.5312 20.2188 17.2812 19.9688 17.25 19.5C17.2812 19.0312 17.5312 18.7812 18 18.75ZM15 18.75C15.4688 18.7812 15.7188 19.0312 15.75 19.5C15.7188 19.9688 15.4688 20.2188 15 20.25C14.5312 20.2188 14.2812 19.9688 14.25 19.5C14.2812 19.0312 14.5312 18.7812 15 18.75ZM12 18.75C12.4688 18.7812 12.7188 19.0312 12.75 19.5C12.7188 19.9688 12.4688 20.2188 12 20.25C11.5312 20.2188 11.2812 19.9688 11.25 19.5C11.2812 19.0312 11.5312 18.7812 12 18.75ZM12 15.75C11.5312 15.7188 11.2812 15.4688 11.25 15C11.2812 14.5312 11.5312 14.2812 12 14.25C12.4688 14.2812 12.7188 14.5312 12.75 15C12.7188 15.4688 12.4688 15.7188 12 15.75ZM9 7.125C9.6875 7.1875 10.0625 7.5625 10.125 8.25C10.0625 8.9375 9.6875 9.3125 9 9.375C8.3125 9.3125 7.9375 8.9375 7.875 8.25C7.9375 7.5625 8.3125 7.1875 9 7.125ZM5.25 7.125C5.9375 7.1875 6.3125 7.5625 6.375 8.25C6.3125 8.9375 5.9375 9.3125 5.25 9.375C4.5625 9.3125 4.1875 8.9375 4.125 8.25C4.1875 7.5625 4.5625 7.1875 5.25 7.125ZM21 3.75C21.8438 3.78125 22.5469 4.07812 23.1094 4.64062C23.6719 5.20312 23.9688 5.90625 24 6.75V21C23.9688 21.8438 23.6719 22.5469 23.1094 23.1094C22.5469 23.6719 21.8438 23.9688 21 24H3C2.15625 23.9688 1.45312 23.6719 0.890625 23.1094C0.328125 22.5469 0.03125 21.8438 0 21V6.75C0.03125 5.90625 0.328125 5.20312 0.890625 4.64062C1.45312 4.07812 2.15625 3.78125 3 3.75H5.15625C5.75 3.03125 6.64062 2.25 7.82812 1.40625C9.04688 0.53125 10.4375 0.0625 12 0C13.5625 0.0625 14.9531 0.53125 16.1719 1.40625C17.3594 2.25 18.2656 3.03125 18.8906 3.75H21ZM12 2.25C11.375 2.25 10.75 2.40625 10.125 2.71875C9.5 3 8.9375 3.34375 8.4375 3.75H15.5625C14.4688 2.84375 13.2812 2.34375 12 2.25ZM21.75 21V12.75H2.25V21C2.28125 21.4688 2.53125 21.7188 3 21.75H21C21.4688 21.7188 21.7188 21.4688 21.75 21ZM21.75 10.5V6.75C21.7188 6.28125 21.4688 6.03125 21 6H3C2.53125 6.03125 2.28125 6.28125 2.25 6.75V10.5H21.75ZM4.5 18C4.03125 17.9688 3.78125 17.7188 3.75 17.25C3.78125 16.7812 4.03125 16.5312 4.5 16.5C4.96875 16.5312 5.21875 16.7812 5.25 17.25C5.21875 17.7188 4.96875 17.9688 4.5 18ZM9 15.75C8.53125 15.7188 8.28125 15.4688 8.25 15C8.28125 14.5312 8.53125 14.2812 9 14.25C9.46875 14.2812 9.71875 14.5312 9.75 15C9.71875 15.4688 9.46875 15.7188 9 15.75ZM10.5 18C10.0312 17.9688 9.78125 17.7188 9.75 17.25C9.78125 16.7812 10.0312 16.5312 10.5 16.5C10.9688 16.5312 11.2188 16.7812 11.25 17.25C11.2188 17.7188 10.9688 17.9688 10.5 18ZM6 15.75C5.53125 15.7188 5.28125 15.4688 5.25 15C5.28125 14.5312 5.53125 14.2812 6 14.25C6.46875 14.2812 6.71875 14.5312 6.75 15C6.71875 15.4688 6.46875 15.7188 6 15.75ZM7.5 18C7.03125 17.9688 6.78125 17.7188 6.75 17.25C6.78125 16.7812 7.03125 16.5312 7.5 16.5C7.96875 16.5312 8.21875 16.7812 8.25 17.25C8.21875 17.7188 7.96875 17.9688 7.5 18ZM15 7.125C15.6875 7.1875 16.0625 7.5625 16.125 8.25C16.0625 8.9375 15.6875 9.3125 15 9.375C14.3125 9.3125 13.9375 8.9375 13.875 8.25C13.9375 7.5625 14.3125 7.1875 15 7.125ZM18.75 7.125C19.4375 7.1875 19.8125 7.5625 19.875 8.25C19.8125 8.9375 19.4375 9.3125 18.75 9.375C18.0625 9.3125 17.6875 8.9375 17.625 8.25C17.6875 7.5625 18.0625 7.1875 18.75 7.125Z" fill="black"/>
</svg>
