<svg width="27" height="18" viewBox="0 0 27 18" fill="none" xmlns="http://www.w3.org/2000/svg">
<path d="M24 0C24.8438 0.03125 25.5469 0.328125 26.1094 0.890625C26.6719 1.45312 26.9688 2.15625 27 3V15C26.9688 15.8438 26.6719 16.5469 26.1094 17.1094C25.5469 17.6719 24.8438 17.9688 24 18H3C2.15625 17.9688 1.45312 17.6719 0.890625 17.1094C0.328125 16.5469 0.03125 15.8438 0 15V3C0.03125 2.15625 0.328125 1.45312 0.890625 0.890625C1.45312 0.328125 2.15625 0.03125 3 0H24ZM6.75 15.75V12C6.28125 11.9688 6.03125 11.7188 6 11.25V7.5H2.25V15C2.28125 15.4688 2.53125 15.7188 3 15.75H6.75ZM12.75 15.75V12C12.2812 11.9688 12.0312 11.7188 12 11.25V7.5H9V11.25C8.96875 11.7188 8.71875 11.9688 8.25 12V15.75H12.75ZM18.75 15.75V12C18.2812 11.9688 18.0312 11.7188 18 11.25V7.5H15V11.25C14.9688 11.7188 14.7188 11.9688 14.25 12V15.75H18.75ZM24 15.75C24.4688 15.7188 24.7188 15.4688 24.75 15V7.5H21V11.25C20.9688 11.7188 20.7188 11.9688 20.25 12V15.75H24ZM24.75 5.25V3C24.7188 2.53125 24.4688 2.28125 24 2.25H3C2.53125 2.28125 2.28125 2.53125 2.25 3V5.25H24.75Z" fill="black"/>
</svg>
