<svg width="24" height="24" viewBox="0 0 24 24" fill="none" xmlns="http://www.w3.org/2000/svg">
<path d="M22.3594 12.6562C23.4219 13.25 23.9688 14.1562 24 15.375V21C23.9688 21.8438 23.6719 22.5469 23.1094 23.1094C22.5469 23.6719 21.8438 23.9688 21 24H3C2.15625 23.9688 1.45312 23.6719 0.890625 23.1094C0.328125 22.5469 0.03125 21.8438 0 21V8.67188C0.0625 6.20312 0.90625 4.15625 2.53125 2.53125C4.15625 0.90625 6.20312 0.0625 8.67188 0H9.375C11.8125 0.0625 13.8438 0.90625 15.4688 2.53125C17.0938 4.125 17.9375 6.14062 18 8.57812C18.0312 9.79688 18.5625 10.7031 19.5938 11.2969L22.3594 12.6562ZM21.75 21V18H20.25V19.5C20.2188 19.9688 19.9688 20.2188 19.5 20.25C19.0312 20.2188 18.7812 19.9688 18.75 19.5V18H17.25V19.5C17.2188 19.9688 16.9688 20.2188 16.5 20.25C16.0312 20.2188 15.7812 19.9688 15.75 19.5V18H11.25V19.5C11.2188 19.9688 10.9688 20.2188 10.5 20.25C10.0312 20.2188 9.78125 19.9688 9.75 19.5V18H8.25V19.5C8.15625 19.9688 7.89062 20.2188 7.45312 20.25C7.04688 20.2188 6.8125 19.9688 6.75 19.5V18H5.25V19.5C5.15625 19.9688 4.89062 20.2188 4.45312 20.25C4.04688 20.2188 3.8125 19.9688 3.75 19.5V18H2.25V21C2.28125 21.4688 2.53125 21.7188 3 21.75H21C21.4688 21.7188 21.7188 21.4688 21.75 21ZM21.75 15.75V15.375C21.75 15.0625 21.6094 14.8281 21.3281 14.6719L18.6562 13.3594C17.75 12.8906 17.0469 12.2344 16.5469 11.3906C16.0156 10.5781 15.75 9.67188 15.75 8.67188C15.7188 6.85937 15.0938 5.34375 13.875 4.125C12.6562 2.90625 11.1562 2.28125 9.375 2.25H8.67188C6.85938 2.28125 5.34375 2.90625 4.125 4.125C2.90625 5.34375 2.28125 6.85937 2.25 8.67188V15.75H21.75Z" fill="black"/>
</svg>
