<svg width="7" height="7" viewBox="0 0 7 7" fill="none" xmlns="http://www.w3.org/2000/svg">
<path d="M6 0C6.28125 0.0104167 6.51562 0.109375 6.70312 0.296875C6.89062 0.484375 6.98958 0.71875 7 1V6C6.98958 6.28125 6.89062 6.51562 6.70312 6.70312C6.51562 6.89062 6.28125 6.98958 6 7H1C0.71875 6.98958 0.484375 6.89062 0.296875 6.70312C0.109375 6.51562 0.0104167 6.28125 0 6V1C0.0104167 0.71875 0.109375 0.484375 0.296875 0.296875C0.484375 0.109375 0.71875 0.0104167 1 0H6ZM6.5 6V1C6.5 0.854167 6.45312 0.734375 6.35938 0.640625C6.26562 0.546875 6.14583 0.5 6 0.5H1C0.854167 0.5 0.734375 0.546875 0.640625 0.640625C0.546875 0.734375 0.5 0.854167 0.5 1V6C0.5 6.14583 0.546875 6.26562 0.640625 6.35938C0.734375 6.45312 0.854167 6.5 1 6.5H6C6.14583 6.5 6.26562 6.45312 6.35938 6.35938C6.45312 6.26562 6.5 6.14583 6.5 6ZM2 1.625C2.22917 1.64583 2.35417 1.77083 2.375 2C2.35417 2.22917 2.22917 2.35417 2 2.375C1.77083 2.35417 1.64583 2.22917 1.625 2C1.64583 1.77083 1.77083 1.64583 2 1.625ZM3.5 3.125C3.72917 3.14583 3.85417 3.27083 3.875 3.5C3.85417 3.72917 3.72917 3.85417 3.5 3.875C3.27083 3.85417 3.14583 3.72917 3.125 3.5C3.14583 3.27083 3.27083 3.14583 3.5 3.125ZM2 4.625C2.22917 4.64583 2.35417 4.77083 2.375 5C2.35417 5.22917 2.22917 5.35417 2 5.375C1.77083 5.35417 1.64583 5.22917 1.625 5C1.64583 4.77083 1.77083 4.64583 2 4.625ZM5 1.625C5.22917 1.64583 5.35417 1.77083 5.375 2C5.35417 2.22917 5.22917 2.35417 5 2.375C4.77083 2.35417 4.64583 2.22917 4.625 2C4.64583 1.77083 4.77083 1.64583 5 1.625ZM5 4.625C5.22917 4.64583 5.35417 4.77083 5.375 5C5.35417 5.22917 5.22917 5.35417 5 5.375C4.77083 5.35417 4.64583 5.22917 4.625 5C4.64583 4.77083 4.77083 4.64583 5 4.625Z" fill="black"/>
</svg>
