<svg width="21" height="24" viewBox="0 0 21 24" fill="none" xmlns="http://www.w3.org/2000/svg">
<path d="M17.625 3C18.5938 3.03125 19.3906 3.35938 20.0156 3.98438C20.6406 4.60937 20.9688 5.39062 21 6.32812V15.75C20.9375 18.0938 20.125 20.0312 18.5625 21.5625C17.0312 23.125 15.0938 23.9375 12.75 24L8.29688 23.9531C6.48438 23.9531 4.875 23.4062 3.46875 22.3125L1.3125 20.625C0.46875 19.9375 0.03125 19.0469 0 17.9531V14.2031C0 13.4219 0.25 12.7344 0.75 12.1406C1.25 11.5469 1.89062 11.1562 2.67188 10.9688L3 10.875V3.375C3.03125 2.40625 3.35938 1.60937 3.98438 0.984375C4.64062 0.359375 5.45312 0.03125 6.42188 0C7.35938 0.03125 8.14062 0.359375 8.76562 0.984375C9.39062 1.60937 9.71875 2.40625 9.75 3.375V7.54688C9.9375 7.51562 10.125 7.5 10.3125 7.5C10.9062 7.5 11.4688 7.67188 12 8.01562C12.5 7.67188 13.0625 7.5 13.6875 7.5C13.875 7.5 14.0625 7.51562 14.25 7.54688V6.32812C14.2812 5.39062 14.6094 4.60937 15.2344 3.98438C15.8594 3.35938 16.6562 3.03125 17.625 3ZM12.75 10.6875V13.3125C12.8125 13.875 13.125 14.1875 13.6875 14.25C14.2812 14.1875 14.6094 13.875 14.6719 13.3125V10.6875C14.6094 10.125 14.2812 9.8125 13.6875 9.75C13.125 9.8125 12.8125 10.125 12.75 10.6875ZM11.25 10.6875C11.1875 10.125 10.875 9.8125 10.3125 9.75C9.8125 9.78125 9.5 10.0312 9.375 10.5C9.875 10.75 10.2969 11.1094 10.6406 11.5781C10.9844 12.0781 11.1875 12.6719 11.25 13.3594C11.25 13.3594 11.25 13.3438 11.25 13.3125V10.6875ZM5.25 3.375V10.5L7.17188 10.2188C7.23438 9.84375 7.32812 9.5 7.45312 9.1875V3.375C7.39062 2.6875 7.01562 2.3125 6.32812 2.25C5.67188 2.3125 5.3125 2.6875 5.25 3.375ZM18.75 15.75V6.32812C18.6875 5.67188 18.3125 5.3125 17.625 5.25C16.9375 5.3125 16.5625 5.67188 16.5 6.32812V9.1875C16.75 9.65625 16.8906 10.1562 16.9219 10.6875V13.3125C16.8906 14.2188 16.5781 14.9688 15.9844 15.5625C15.3594 16.1562 14.5938 16.4688 13.6875 16.5C13.0625 16.5 12.5 16.3438 12 16.0312C11.4688 16.3438 10.9062 16.5 10.3125 16.5C10.0625 16.5 9.8125 16.4688 9.5625 16.4062C9.28125 16.5938 8.95312 16.7188 8.57812 16.7812L5.76562 17.2031C5.70312 17.2031 5.65625 17.2031 5.625 17.2031C5.46875 17.2031 5.25 17.125 4.96875 16.9688C4.6875 16.8438 4.53125 16.5469 4.5 16.0781C4.53125 15.4531 4.85938 15.0781 5.48438 14.9531L8.20312 14.5312C8.70312 14.375 8.96875 14.0156 9 13.4531C9 13.1094 8.875 12.8438 8.625 12.6562C8.40625 12.4375 8.15625 12.3281 7.875 12.3281C7.78125 12.3281 7.70312 12.3438 7.64062 12.375L3.09375 13.125C2.59375 13.2812 2.3125 13.6406 2.25 14.2031V17.9531C2.25 18.3594 2.39062 18.6719 2.67188 18.8906L4.82812 20.5781C5.85938 21.3594 7.01562 21.75 8.29688 21.75H12.75C14.4375 21.7188 15.8438 21.125 16.9688 19.9688C18.125 18.8438 18.7188 17.4375 18.75 15.75Z" fill="black"/>
</svg>
