<svg width="11" height="11" viewBox="0 0 11 11" fill="none" xmlns="http://www.w3.org/2000/svg">
<path d="M0.351562 0.445312C0.570312 0.367188 0.773438 0.40625 0.960938 0.5625L1.92188 1.52344C2.40625 1.05469 2.96875 0.6875 3.60938 0.421875C4.23438 0.140625 4.89844 0 5.60156 0C6.58594 0.015625 7.47656 0.257812 8.27344 0.726562C9.05469 1.21094 9.67969 1.84375 10.1484 2.625C10.6172 3.42188 10.8594 4.30469 10.875 5.27344C10.8594 6.24219 10.6172 7.125 10.1484 7.92188C9.69531 8.70312 9.07031 9.32812 8.27344 9.79688C7.49219 10.2656 6.60938 10.5078 5.625 10.5234C4.35938 10.5078 3.24219 10.1016 2.27344 9.30469C2.02344 9.05469 2 8.78906 2.20312 8.50781C2.4375 8.27344 2.69531 8.25 2.97656 8.4375C3.75781 9.0625 4.64062 9.38281 5.625 9.39844C6.79688 9.36719 7.76562 8.96094 8.53125 8.17969C9.3125 7.41406 9.71875 6.44531 9.75 5.27344C9.71875 4.10156 9.3125 3.13281 8.53125 2.36719C7.76562 1.58594 6.79688 1.17969 5.625 1.14844C4.48438 1.17969 3.52344 1.57812 2.74219 2.34375L3.96094 3.5625C4.11719 3.75 4.15625 3.95312 4.07812 4.17188C3.98438 4.39062 3.8125 4.50781 3.5625 4.52344H0.5625C0.21875 4.49219 0.03125 4.30469 0 3.96094V0.960938C0.015625 0.710937 0.132812 0.539062 0.351562 0.445312Z" fill="black"/>
</svg>
