<svg width="27" height="33" viewBox="0 0 27 33" fill="none" xmlns="http://www.w3.org/2000/svg">
<path d="M1.75781 0.914062C2.88281 0.304687 4.00781 0.328125 5.13281 0.984375L25.3828 13.3594C26.4141 14.0625 26.9531 15.0234 27 16.2422C26.9531 17.5078 26.4141 18.4453 25.3828 19.0547L5.13281 31.4297C4.00781 32.1328 2.88281 32.1797 1.75781 31.5703C0.632812 30.9141 0.046875 29.9297 0 28.6172V3.86719C0.046875 2.55469 0.632812 1.57031 1.75781 0.914062ZM3.9375 2.88281C3.5625 2.69531 3.1875 2.69531 2.8125 2.88281C2.4375 3.11719 2.25 3.44531 2.25 3.86719V28.6172C2.25 29.0391 2.4375 29.3438 2.8125 29.5312C3.1875 29.7656 3.5625 29.7891 3.9375 29.6016L24.1875 17.2266C24.5625 16.9922 24.75 16.6641 24.75 16.2422C24.75 15.8203 24.5625 15.4922 24.1875 15.2578L3.9375 2.88281Z" fill="white"/>
</svg>
