<svg width="12" height="13" viewBox="0 0 12 13" fill="none" xmlns="http://www.w3.org/2000/svg">
<path d="M0.5625 2.32031C0.21875 2.28906 0.03125 2.10156 0 1.75781C0.03125 1.41406 0.21875 1.22656 0.5625 1.19531H6.1875C6.53125 1.22656 6.71875 1.41406 6.75 1.75781C6.71875 2.10156 6.53125 2.28906 6.1875 2.32031H0.5625ZM11.6953 0.210938C11.8984 0.367188 12 0.570312 12 0.820312V3.16406C11.9844 3.50781 11.8125 3.74219 11.4844 3.86719L9 4.64062V10.1953C8.98438 10.7266 8.72656 11.1719 8.22656 11.5312C7.74219 11.875 7.125 12.0547 6.375 12.0703C5.625 12.0547 5.00781 11.875 4.52344 11.5312C4.02344 11.1719 3.76562 10.7266 3.75 10.1953C3.76562 9.66406 4.02344 9.21875 4.52344 8.85938C5.00781 8.51562 5.625 8.33594 6.375 8.32031C6.9375 8.32031 7.4375 8.42969 7.875 8.64844V1.64062C7.89062 1.29687 8.0625 1.0625 8.39062 0.9375L11.0156 0.09375C11.2656 0.03125 11.4922 0.0703125 11.6953 0.210938ZM6.375 10.9219C6.84375 10.9062 7.21094 10.8203 7.47656 10.6641C7.74219 10.4922 7.875 10.3359 7.875 10.1953C7.875 10.0547 7.74219 9.89844 7.47656 9.72656C7.21094 9.55469 6.84375 9.46094 6.375 9.44531C5.90625 9.46094 5.53906 9.55469 5.27344 9.72656C5.00781 9.89844 4.875 10.0547 4.875 10.1953C4.875 10.3359 5.00781 10.4844 5.27344 10.6406C5.53906 10.8125 5.90625 10.9062 6.375 10.9219ZM10.875 2.88281V1.33594L9 1.92188V3.44531L10.875 2.88281ZM0.5625 5.29688C0.21875 5.26562 0.03125 5.07812 0 4.73438C0.03125 4.39062 0.21875 4.20312 0.5625 4.17188H6.1875C6.53125 4.20312 6.71875 4.39062 6.75 4.73438C6.71875 5.07812 6.53125 5.26562 6.1875 5.29688H0.5625ZM3.1875 7.17188C3.53125 7.20312 3.71875 7.39062 3.75 7.73438C3.71875 8.07812 3.53125 8.26562 3.1875 8.29688H0.5625C0.21875 8.26562 0.03125 8.07812 0 7.73438C0.03125 7.39062 0.21875 7.20312 0.5625 7.17188H3.1875Z" fill="black"/>
</svg>
