<svg width="21" height="24" viewBox="0 0 21 24" fill="none" xmlns="http://www.w3.org/2000/svg">
<path d="M18 0C18.8438 0.03125 19.5469 0.328125 20.1094 0.890625C20.6719 1.45312 20.9688 2.15625 21 3V17.25C20.9375 18.4062 20.4375 19.2656 19.5 19.8281V22.5C19.5 22.9375 19.3594 23.2969 19.0781 23.5781C18.7969 23.8594 18.4375 24 18 24H3C2.5625 24 2.20312 23.8594 1.92188 23.5781C1.64062 23.2969 1.5 22.9375 1.5 22.5V19.8281C0.5625 19.2656 0.0625 18.4062 0 17.25V3C0.03125 2.15625 0.328125 1.45312 0.890625 0.890625C1.45312 0.328125 2.15625 0.03125 3 0H18ZM17.25 21.75V20.25H3.75V21.75H17.25ZM18.75 17.25V3C18.7188 2.53125 18.4688 2.28125 18 2.25H3C2.53125 2.28125 2.28125 2.53125 2.25 3V17.25C2.28125 17.7188 2.53125 17.9688 3 18H18C18.4688 17.9688 18.7188 17.7188 18.75 17.25ZM15.75 3.75C16.1875 3.75 16.5469 3.89062 16.8281 4.17188C17.1094 4.45312 17.25 4.8125 17.25 5.25L17.2031 9.75C17.2031 10.1875 17.0625 10.5469 16.7812 10.8281C16.5312 11.1094 16.1875 11.25 15.75 11.25H5.25C4.8125 11.25 4.45312 11.1094 4.17188 10.8281C3.89062 10.5469 3.75 10.1875 3.75 9.75V5.25C3.75 4.8125 3.89062 4.45312 4.17188 4.17188C4.45312 3.89062 4.8125 3.75 5.25 3.75H15.75ZM5.625 14.25C6.3125 14.3125 6.6875 14.6875 6.75 15.375C6.6875 16.0625 6.3125 16.4375 5.625 16.5C4.9375 16.4375 4.5625 16.0625 4.5 15.375C4.5625 14.6875 4.9375 14.3125 5.625 14.25ZM16.5 14.25C16.9688 14.2812 17.2188 14.5312 17.25 15C17.2188 15.4688 16.9688 15.7188 16.5 15.75H10.5C10.0312 15.7188 9.78125 15.4688 9.75 15C9.78125 14.5312 10.0312 14.2812 10.5 14.25H16.5Z" fill="black"/>
</svg>
