<svg width="25" height="22" viewBox="0 0 25 22" fill="none" xmlns="http://www.w3.org/2000/svg">
<path d="M20.25 4.5C21.3125 4.875 22.1875 5.39062 22.875 6.04688C23.5625 6.67187 23.9219 7.48438 23.9531 8.48438V16.0312C23.8594 17.5312 22.6875 18.7656 20.4375 19.7344C18.1562 20.7344 15.3281 21.25 11.9531 21.2812C8.57812 21.25 5.76562 20.7344 3.51562 19.7344C1.26562 18.7344 0.09375 17.4688 0 15.9375V8.48438C0.03125 7.26562 0.5625 6.29687 1.59375 5.57812C2.59375 4.85938 3.8125 4.34375 5.25 4.03125C6.65625 3.6875 8 3.48437 9.28125 3.42188C10.5312 3.32812 11.4375 3.28125 12 3.28125C12.4375 3.28125 13.1406 3.3125 14.1094 3.375C15.0469 3.4375 16.0938 3.5625 17.25 3.75L22.2656 0.46875C22.8594 0.15625 23.375 0.265625 23.8125 0.796875C24.125 1.39063 24.0156 1.90625 23.4844 2.34375L20.25 4.5ZM4.125 17.5312V12.7031C3.46875 12.4844 2.84375 12.2188 2.25 11.9062V16.0312C2.25 16.4062 2.875 16.9062 4.125 17.5312ZM10.875 18.9844V13.7812C9.65625 13.75 8.15625 13.5781 6.375 13.2656V18.375C7.625 18.6875 9.125 18.8906 10.875 18.9844ZM17.625 18.375V13.2656C15.8438 13.5781 14.3438 13.75 13.125 13.7812V18.9844C14.875 18.8906 16.375 18.6875 17.625 18.375ZM21.75 16.0312V11.9062C21.1562 12.2188 20.5312 12.4844 19.875 12.7031V17.5312C21.125 16.9062 21.75 16.4062 21.75 16.0312ZM12 11.5312C14.75 11.5 17.0469 11.2031 18.8906 10.6406C20.7031 10.0781 21.6562 9.375 21.75 8.53125C21.7188 8.03125 21.3594 7.57812 20.6719 7.17188C19.9531 6.73438 18.9688 6.39062 17.7188 6.14062L12.6094 9.46875C12.4219 9.59375 12.2188 9.65625 12 9.65625C11.625 9.65625 11.3125 9.46875 11.0625 9.09375C10.75 8.5 10.8594 7.98438 11.3906 7.54688L14.3906 5.67188C13.6094 5.60938 12.8125 5.57812 12 5.57812C9.25 5.60938 6.96875 5.89063 5.15625 6.42188C3.3125 6.98438 2.35938 7.6875 2.29688 8.53125C2.35938 9.375 3.29688 10.0781 5.10938 10.6406C6.95312 11.2031 9.25 11.5 12 11.5312Z" fill="black"/>
</svg>
