<svg width="12" height="12" viewBox="0 0 12 12" fill="none" xmlns="http://www.w3.org/2000/svg">
<path d="M12 6C11.9844 7.125 11.7109 8.13281 11.1797 9.02344C10.6484 9.92969 9.92969 10.6484 9.02344 11.1797C8.13281 11.7109 7.125 11.9844 6 12C4.875 11.9844 3.86719 11.7109 2.97656 11.1797C2.07031 10.6484 1.35156 9.92969 0.820312 9.02344C0.289062 8.13281 0.015625 7.125 0 6C0.015625 4.875 0.289062 3.86719 0.820312 2.97656C1.35156 2.07031 2.07031 1.35156 2.97656 0.820312C3.86719 0.289062 4.875 0.015625 6 0C7.125 0.015625 8.13281 0.289062 9.02344 0.820312C9.92969 1.35156 10.6484 2.07031 11.1797 2.97656C11.7109 3.86719 11.9844 4.875 12 6ZM6 1.125V10.875C7.375 10.8438 8.52344 10.3672 9.44531 9.44531C10.3672 8.52344 10.8438 7.375 10.875 6C10.8438 4.625 10.3672 3.47656 9.44531 2.55469C8.52344 1.63281 7.375 1.15625 6 1.125Z" fill="black"/>
</svg>
