<svg width="8" height="9" viewBox="0 0 8 9" fill="none" xmlns="http://www.w3.org/2000/svg">
<path d="M7.75 3.79688C7.90625 3.80729 7.98958 3.89062 8 4.04688C7.97917 4.82812 7.70833 5.47396 7.1875 5.98438C6.67708 6.50521 6.03125 6.77604 5.25 6.79688H3V7.79688C3 7.90104 2.95312 7.97917 2.85938 8.03125C2.76562 8.0625 2.67708 8.04688 2.59375 7.98438L1.09375 6.73438C1.03125 6.68229 1 6.61979 1 6.54688C1 6.47396 1.03125 6.41146 1.09375 6.35938L2.59375 5.10938C2.63542 5.06771 2.6875 5.04688 2.75 5.04688C2.78125 5.04688 2.81771 5.05729 2.85938 5.07812C2.95312 5.11979 3 5.19271 3 5.29688V6.29688H5.25C5.88542 6.27604 6.41667 6.05729 6.84375 5.64062C7.26042 5.21354 7.47917 4.68229 7.5 4.04688C7.51042 3.89062 7.59375 3.80729 7.75 3.79688ZM2.5 7.26562V5.82812L1.64062 6.54688L2.5 7.26562ZM2.75 1.79688C2.11458 1.81771 1.58333 2.03646 1.15625 2.45312C0.739583 2.88021 0.520833 3.41146 0.5 4.04688C0.489583 4.20312 0.40625 4.28646 0.25 4.29688C0.09375 4.28646 0.0104167 4.20312 0 4.04688C0.0208333 3.26562 0.291667 2.61458 0.8125 2.09375C1.32292 1.58333 1.96875 1.31771 2.75 1.29688H4.98438L5 0.296875C5 0.192708 5.04688 0.114583 5.14062 0.0625C5.23438 0.0208333 5.32292 0.03125 5.40625 0.09375L6.90625 1.34375C6.96875 1.38542 7 1.44792 7 1.53125C7 1.625 6.96875 1.69271 6.90625 1.73438L5.40625 2.98438C5.36458 3.02604 5.3125 3.04688 5.25 3.04688C5.21875 3.04688 5.18229 3.04167 5.14062 3.03125C5.04688 2.97917 5 2.90104 5 2.79688L4.98438 1.79688H2.75ZM5.5 0.828125V2.26562L6.35938 1.54688L5.5 0.828125Z" fill="black"/>
</svg>
