<svg width="27" height="21" viewBox="0 0 27 21" fill="none" xmlns="http://www.w3.org/2000/svg">
<path d="M14.1094 0.140625C14.6719 0.421875 14.9688 0.875 15 1.5V19.3594C14.9688 19.9844 14.6719 20.4375 14.1094 20.7188C13.9219 20.8125 13.7188 20.8594 13.5 20.8594C13.125 20.8594 12.7969 20.7344 12.5156 20.4844L6.1875 14.8594H2.25C1.625 14.8594 1.09375 14.6562 0.65625 14.25C0.25 13.8438 0.03125 13.3125 0 12.6562V8.20312C0.03125 7.57812 0.25 7.0625 0.65625 6.65625C1.09375 6.25 1.625 6.03125 2.25 6H6.1875L12.5156 0.375C12.7969 0.125 13.125 0 13.5 0C13.7188 0 13.9219 0.046875 14.1094 0.140625ZM12.75 17.8125V3.1875L7.03125 8.29688H2.25V12.75H7.03125L12.75 17.8125ZM24.0938 10.4531L26.2969 12.7031C26.7344 13.2344 26.7344 13.7656 26.2969 14.2969C25.7656 14.7344 25.2344 14.7344 24.7031 14.2969L22.5 12.0938L20.25 14.2969C19.7188 14.7344 19.1875 14.7344 18.6562 14.2969C18.2188 13.7656 18.2188 13.2344 18.6562 12.7031L20.8594 10.5L18.6562 8.29688C18.2188 7.76562 18.2188 7.23438 18.6562 6.70312C19.1875 6.26563 19.7188 6.26563 20.25 6.70312L22.5 8.90625L24.7031 6.65625C25.2344 6.21875 25.7656 6.21875 26.2969 6.65625C26.7344 7.1875 26.7344 7.71875 26.2969 8.25L24.0938 10.4531Z" fill="black"/>
</svg>
