<svg width="6" height="8" viewBox="0 0 6 8" fill="none" xmlns="http://www.w3.org/2000/svg">
<path d="M0.390625 0.203125C0.640625 0.0677083 0.890625 0.0729167 1.14062 0.21875L5.64062 2.96875C5.86979 3.125 5.98958 3.33854 6 3.60938C5.98958 3.89062 5.86979 4.09896 5.64062 4.23438L1.14062 6.98438C0.890625 7.14062 0.640625 7.15104 0.390625 7.01562C0.140625 6.86979 0.0104167 6.65104 0 6.35938V0.859375C0.0104167 0.567708 0.140625 0.348958 0.390625 0.203125ZM0.875 0.640625C0.791667 0.598958 0.708333 0.598958 0.625 0.640625C0.541667 0.692708 0.5 0.765625 0.5 0.859375V6.35938C0.5 6.45312 0.541667 6.52083 0.625 6.5625C0.708333 6.61458 0.791667 6.61979 0.875 6.57812L5.375 3.82812C5.45833 3.77604 5.5 3.70312 5.5 3.60938C5.5 3.51562 5.45833 3.44271 5.375 3.39062L0.875 0.640625Z" fill="black"/>
</svg>
