<svg width="16" height="16" viewBox="0 0 16 16" fill="none" xmlns="http://www.w3.org/2000/svg">
<path d="M8 16C6.5 15.9792 5.15625 15.6146 3.96875 14.9062C2.76042 14.1979 1.80208 13.2396 1.09375 12.0312C0.385417 10.8438 0.0208333 9.5 0 8C0.0208333 6.5 0.385417 5.15625 1.09375 3.96875C1.80208 2.76042 2.76042 1.80208 3.96875 1.09375C5.15625 0.385417 6.5 0.0208333 8 0C9.5 0.0208333 10.8438 0.385417 12.0312 1.09375C13.2396 1.80208 14.1979 2.76042 14.9062 3.96875C15.6146 5.15625 15.9792 6.5 16 8C15.9792 9.5 15.6146 10.8438 14.9062 12.0312C14.1979 13.2396 13.2396 14.1979 12.0312 14.9062C10.8438 15.6146 9.5 15.9792 8 16ZM11.5312 6.53125C11.8229 6.17708 11.8229 5.82292 11.5312 5.46875C11.1771 5.17708 10.8229 5.17708 10.4688 5.46875L7 8.9375L5.53125 7.46875C5.17708 7.17708 4.82292 7.17708 4.46875 7.46875C4.17708 7.82292 4.17708 8.17708 4.46875 8.53125L6.46875 10.5312C6.82292 10.8229 7.17708 10.8229 7.53125 10.5312L11.5312 6.53125Z" fill="black"/>
</svg>
