<svg width="10" height="10" viewBox="0 0 10 10" fill="none" xmlns="http://www.w3.org/2000/svg">
<path d="M5 10C4.0625 9.98698 3.22266 9.75911 2.48047 9.31641C1.72526 8.8737 1.1263 8.27474 0.683594 7.51953C0.240885 6.77734 0.0130208 5.9375 0 5C0.0130208 4.0625 0.240885 3.22266 0.683594 2.48047C1.1263 1.72526 1.72526 1.1263 2.48047 0.683594C3.22266 0.240885 4.0625 0.0130208 5 0C5.9375 0.0130208 6.77734 0.240885 7.51953 0.683594C8.27474 1.1263 8.8737 1.72526 9.31641 2.48047C9.75911 3.22266 9.98698 4.0625 10 5C9.98698 5.9375 9.75911 6.77734 9.31641 7.51953C8.8737 8.27474 8.27474 8.8737 7.51953 9.31641C6.77734 9.75911 5.9375 9.98698 5 10Z" fill="black"/>
</svg>
