<svg width="11" height="11" viewBox="0 0 11 11" fill="none" xmlns="http://www.w3.org/2000/svg">
<path d="M10.8984 0.914062V3.91406C10.8672 4.25781 10.6797 4.44531 10.3359 4.47656H7.33594C6.99219 4.44531 6.80469 4.25781 6.77344 3.91406C6.77344 3.75781 6.82812 3.625 6.9375 3.51562L8.15625 2.29688C7.375 1.53125 6.41406 1.13281 5.27344 1.10156C4.10156 1.13281 3.125 1.53125 2.34375 2.29688C1.57812 3.07812 1.17969 4.05469 1.14844 5.22656C1.17969 6.39844 1.58594 7.375 2.36719 8.15625C3.13281 8.92188 4.10156 9.32031 5.27344 9.35156C5.89844 9.33594 6.40625 9.24219 6.79688 9.07031C7.17188 8.89844 7.46875 8.72656 7.6875 8.55469C7.92188 8.38281 8.10938 8.28906 8.25 8.27344C8.375 8.27344 8.5 8.32031 8.625 8.41406C8.75 8.50781 8.8125 8.64844 8.8125 8.83594C8.78125 9.16406 8.41406 9.50781 7.71094 9.86719C7.00781 10.2422 6.1875 10.4453 5.25 10.4766C4.28125 10.4609 3.39844 10.2188 2.60156 9.75C1.82031 9.28125 1.19531 8.65625 0.726562 7.875C0.257812 7.09375 0.015625 6.21094 0 5.22656C0.015625 4.25781 0.257812 3.375 0.726562 2.57812C1.19531 1.79688 1.82031 1.17188 2.60156 0.703125C3.39844 0.25 4.28125 0.015625 5.25 0C5.95312 0 6.625 0.132813 7.26562 0.398438C7.89062 0.664062 8.44531 1.03906 8.92969 1.52344L9.89062 0.5625C10 0.453125 10.1328 0.398438 10.2891 0.398438C10.6641 0.398438 10.8672 0.570312 10.8984 0.914062Z" fill="black"/>
</svg>
