<svg width="8" height="11" viewBox="0 0 8 11" fill="none" xmlns="http://www.w3.org/2000/svg">
<path d="M0.9375 10.5C0.671875 10.5 0.453125 10.4062 0.28125 10.2188C0.09375 10.0469 0 9.82812 0 9.5625V8.4375C0 8.17188 0.09375 7.95312 0.28125 7.78125C0.453125 7.59375 0.671875 7.5 0.9375 7.5H2.0625C2.32812 7.5 2.54688 7.59375 2.71875 7.78125C2.90625 7.95312 3 8.17188 3 8.4375V9.5625C3 9.82812 2.90625 10.0469 2.71875 10.2188C2.54688 10.4062 2.32812 10.5 2.0625 10.5H0.9375ZM2.0625 9.5625V8.4375H0.9375V9.5625H2.0625ZM5.4375 10.5C5.17188 10.5 4.95312 10.4062 4.78125 10.2188C4.59375 10.0469 4.5 9.82812 4.5 9.5625V8.4375C4.5 8.17188 4.59375 7.95312 4.78125 7.78125C4.95312 7.59375 5.17188 7.5 5.4375 7.5H6.5625C6.82812 7.5 7.04688 7.59375 7.21875 7.78125C7.40625 7.95312 7.5 8.17188 7.5 8.4375V9.5625C7.5 9.82812 7.40625 10.0469 7.21875 10.2188C7.04688 10.4062 6.82812 10.5 6.5625 10.5H5.4375ZM6.5625 9.5625V8.4375H5.4375V9.5625H6.5625ZM0 4.6875C0 4.42188 0.09375 4.20312 0.28125 4.03125C0.453125 3.84375 0.671875 3.75 0.9375 3.75H2.0625C2.32812 3.75 2.54688 3.84375 2.71875 4.03125C2.90625 4.20312 3 4.42188 3 4.6875V5.8125C3 6.07812 2.90625 6.29688 2.71875 6.46875C2.54688 6.65625 2.32812 6.75 2.0625 6.75H0.9375C0.671875 6.75 0.453125 6.65625 0.28125 6.46875C0.09375 6.29688 0 6.07812 0 5.8125V4.6875ZM0.9375 4.6875V5.8125H2.0625V4.6875H0.9375ZM5.4375 6.75C5.17188 6.75 4.95312 6.65625 4.78125 6.46875C4.59375 6.29688 4.5 6.07812 4.5 5.8125V4.6875C4.5 4.42188 4.59375 4.20312 4.78125 4.03125C4.95312 3.84375 5.17188 3.75 5.4375 3.75H6.5625C6.82812 3.75 7.04688 3.84375 7.21875 4.03125C7.40625 4.20312 7.5 4.42188 7.5 4.6875V5.8125C7.5 6.07812 7.40625 6.29688 7.21875 6.46875C7.04688 6.65625 6.82812 6.75 6.5625 6.75H5.4375ZM6.5625 5.8125V4.6875H5.4375V5.8125H6.5625ZM0 0.9375C0 0.671875 0.09375 0.453125 0.28125 0.28125C0.453125 0.09375 0.671875 0 0.9375 0H2.0625C2.32812 0 2.54688 0.09375 2.71875 0.28125C2.90625 0.453125 3 0.671875 3 0.9375V2.0625C3 2.32812 2.90625 2.54688 2.71875 2.71875C2.54688 2.90625 2.32812 3 2.0625 3H0.9375C0.671875 3 0.453125 2.90625 0.28125 2.71875C0.09375 2.54688 0 2.32812 0 2.0625V0.9375ZM0.9375 0.9375V2.0625H2.0625V0.9375H0.9375ZM5.4375 3C5.17188 3 4.95312 2.90625 4.78125 2.71875C4.59375 2.54688 4.5 2.32812 4.5 2.0625V0.9375C4.5 0.671875 4.59375 0.453125 4.78125 0.28125C4.95312 0.09375 5.17188 0 5.4375 0H6.5625C6.82812 0 7.04688 0.09375 7.21875 0.28125C7.40625 0.453125 7.5 0.671875 7.5 0.9375V2.0625C7.5 2.32812 7.40625 2.54688 7.21875 2.71875C7.04688 2.90625 6.82812 3 6.5625 3H5.4375ZM6.5625 2.0625V0.9375H5.4375V2.0625H6.5625Z" fill="black"/>
</svg>
