<svg width="31" height="25" viewBox="0 0 31 25" fill="none" xmlns="http://www.w3.org/2000/svg">
<path d="M24.6562 2.57812C24.3438 2.57812 24.0781 2.46875 23.8594 2.25C23.6406 2.03125 23.5312 1.76563 23.5312 1.45312C23.5938 0.765625 23.9688 0.390625 24.6562 0.328125C25.3438 0.390625 25.7188 0.765625 25.7812 1.45312C25.7188 2.14063 25.3438 2.51563 24.6562 2.57812ZM22.4062 4.82812C22.0938 4.82812 21.8281 4.71875 21.6094 4.5C21.3906 4.28125 21.2812 4.01563 21.2812 3.70312C21.3438 3.01562 21.7188 2.64062 22.4062 2.57812C23.0938 2.64062 23.4688 3.01562 23.5312 3.70312C23.4688 4.39063 23.0938 4.76563 22.4062 4.82812ZM22.875 9.375C23.4688 10.0938 23.9062 10.9062 24.1875 11.8125C24.5938 13.625 24.2188 15.1562 23.0625 16.4062C22.875 16.5625 22.7031 16.7031 22.5469 16.8281C22.5156 16.8281 22.4844 16.8438 22.4531 16.875C21.2656 16.7812 20.3594 17.1562 19.7344 18C19.0781 18.8125 18.9219 19.7812 19.2656 20.9062C19.0469 21.625 18.6562 22.2656 18.0938 22.8281C17.0625 23.8281 15.7969 24.3281 14.2969 24.3281C12.8594 24.3281 11.4531 23.875 10.0781 22.9688L9.42188 24C9.26562 24.1875 9.07812 24.2969 8.85938 24.3281C8.60938 24.3594 8.40625 24.2812 8.25 24.0938L6.5625 22.4062C6.375 22.25 6.29688 22.0469 6.32812 21.7969C6.35938 21.5781 6.46875 21.3906 6.65625 21.2344L7.6875 20.5781C6.78125 19.1719 6.32812 17.7344 6.32812 16.2656C6.32812 14.8281 6.82812 13.5938 7.82812 12.5625C8.35938 12 9 11.6094 9.75 11.3906C10.875 11.7344 11.8594 11.5781 12.7031 10.9219C13.5156 10.2656 13.875 9.34375 13.7812 8.15625C13.8125 8.15625 13.8281 8.14062 13.8281 8.10938C13.9531 7.92188 14.0781 7.75 14.2031 7.59375C15.0469 6.84375 15.9062 6.4375 16.7812 6.375C17.6562 6.3125 18.3438 6.34375 18.8438 6.46875C19.75 6.71875 20.5625 7.15625 21.2812 7.78125L28.5 0.5625C28.875 0.25 29.2344 0.25 29.5781 0.5625L30.0938 1.07812C30.4062 1.42187 30.4062 1.78125 30.0938 2.15625L22.875 9.375ZM21.6562 14.5781C22.0625 14.0156 22.1719 13.2656 21.9844 12.3281C21.8281 11.8281 21.5938 11.375 21.2812 10.9688L17.1562 15.0938C16.7812 15.4062 16.4219 15.4062 16.0781 15.0938L15.5625 14.5781C15.25 14.2344 15.25 13.875 15.5625 13.5L19.6875 9.375C19.3125 9.0625 18.8594 8.82812 18.3281 8.67188C18.0469 8.60938 17.7656 8.57812 17.4844 8.57812C17.0469 8.54688 16.5781 8.6875 16.0781 9C15.9219 10.5 15.2656 11.7188 14.1094 12.6562C12.9844 13.625 11.5938 13.9844 9.9375 13.7344C9.09375 14.2344 8.64062 15.1094 8.57812 16.3594C8.57812 17.3906 8.90625 18.375 9.5625 19.3125L9.89062 19.0781C10.2344 18.8906 10.5469 18.9219 10.8281 19.1719L11.4844 19.8281C11.7344 20.1094 11.7656 20.4219 11.5781 20.7656L11.3438 21.0938C12.2812 21.75 13.2656 22.0781 14.2969 22.0781C15.1094 22.0469 15.7188 21.875 16.125 21.5625C16.5312 21.25 16.7969 20.9688 16.9219 20.7188C16.6719 19.0938 17.0312 17.7031 18 16.5469C18.9375 15.3906 20.1562 14.7344 21.6562 14.5781ZM29.1562 4.82812C29.875 4.89062 30.2656 5.26562 30.3281 5.95312C30.2656 6.64063 29.875 7.01563 29.1562 7.07812C28.4688 7.01563 28.0938 6.64063 28.0312 5.95312C28.0938 5.26562 28.4688 4.89062 29.1562 4.82812ZM26.9062 7.07812C27.625 7.14062 28 7.51562 28.0312 8.20312C27.9688 8.89062 27.5938 9.26562 26.9062 9.32812C26.2188 9.26562 25.8438 8.89062 25.7812 8.20312C25.8438 7.51562 26.2188 7.14062 26.9062 7.07812ZM16.5 0.65625C16.9375 1.1875 16.9375 1.71875 16.5 2.25L2.25 16.5C2.03125 16.7188 1.76562 16.8281 1.45312 16.8281C1.14062 16.8281 0.875 16.7188 0.65625 16.5C0.21875 15.9688 0.21875 15.4375 0.65625 14.9062L14.9062 0.65625C15.4375 0.21875 15.9688 0.21875 16.5 0.65625Z" fill="black"/>
</svg>
