<svg width="14" height="14" viewBox="0 0 14 14" fill="none" xmlns="http://www.w3.org/2000/svg">
<path d="M12 0C12.5625 0.0208333 13.0312 0.21875 13.4062 0.59375C13.7812 0.96875 13.9792 1.4375 14 2V12C13.9792 12.5625 13.7812 13.0312 13.4062 13.4062C13.0312 13.7812 12.5625 13.9792 12 14H2C1.4375 13.9792 0.96875 13.7812 0.59375 13.4062C0.21875 13.0312 0.0208333 12.5625 0 12V2C0.0208333 1.4375 0.21875 0.96875 0.59375 0.59375C0.96875 0.21875 1.4375 0.0208333 2 0H12ZM12 1.5H2C1.6875 1.52083 1.52083 1.6875 1.5 2V12C1.52083 12.3125 1.6875 12.4792 2 12.5H12C12.3125 12.4792 12.4792 12.3125 12.5 12V2C12.4792 1.6875 12.3125 1.52083 12 1.5Z" fill="black"/>
</svg>
