<svg width="24" height="24" viewBox="0 0 24 24" fill="none" xmlns="http://www.w3.org/2000/svg">
<path d="M8.99902 20.5018C8.72302 20.5018 8.49902 20.2778 8.49902 20.0018V6.50176C8.49902 6.29976 8.62002 6.11776 8.80702 6.03976L20.807 1.03976C20.96 0.976761 21.138 0.992761 21.277 1.08576C21.416 1.17876 21.499 1.33476 21.499 1.50176V16.5018C21.499 16.7778 21.275 17.0018 20.999 17.0018C20.723 17.0018 20.499 16.7778 20.499 16.5018V2.25176L9.49902 6.83476V20.0018C9.49902 20.2778 9.27502 20.5018 8.99902 20.5018Z" fill="white"/>
<path d="M8.99901 10.0018C8.80401 10.0018 8.61701 9.88679 8.53701 9.69379C8.43201 9.43879 8.55201 9.14579 8.80701 9.03979L20.807 4.03979C21.06 3.93779 21.355 4.05379 21.461 4.30979C21.566 4.56479 21.446 4.85779 21.191 4.96379L9.19101 9.96379C9.12901 9.98879 9.06301 10.0018 8.99901 10.0018Z" fill="#967A13"/>
<path d="M5.42488 22.9966C3.94588 22.9966 2.82088 22.3196 2.55588 21.2726C2.42588 20.7596 2.51988 20.2196 2.82688 19.7096C3.30488 18.9136 4.26288 18.2736 5.38888 17.9976C5.78488 17.9006 6.18388 17.8516 6.57588 17.8516C8.05288 17.8516 9.17988 18.5286 9.44388 19.5756C9.57388 20.0886 9.47988 20.6286 9.17288 21.1386C8.69488 21.9346 7.73688 22.5746 6.61088 22.8506C6.21488 22.9466 5.81488 22.9966 5.42488 22.9966ZM6.57388 18.8516C6.26188 18.8516 5.94288 18.8916 5.62588 18.9686C4.76588 19.1806 4.02188 19.6606 3.68388 20.2246C3.56788 20.4176 3.44588 20.7136 3.52488 21.0276C3.66988 21.5986 4.45088 21.9976 5.42388 21.9976H5.42488C5.73588 21.9976 6.05488 21.9576 6.37188 21.8806C7.23188 21.6686 7.97588 21.1886 8.31388 20.6246C8.42988 20.4316 8.55188 20.1356 8.47288 19.8216C8.32888 19.2496 7.54788 18.8516 6.57388 18.8516Z" fill="#967A13"/>
<path d="M17.4249 19.9966C15.9459 19.9966 14.8209 19.3196 14.5559 18.2726C14.4259 17.7596 14.5199 17.2196 14.8269 16.7096C15.3049 15.9136 16.2629 15.2736 17.3889 14.9976C17.7849 14.9006 18.1839 14.8516 18.5759 14.8516C20.0529 14.8516 21.1799 15.5286 21.4439 16.5756C21.5739 17.0886 21.4799 17.6286 21.1729 18.1386C20.6949 18.9346 19.7369 19.5746 18.6109 19.8506C18.2149 19.9466 17.8149 19.9966 17.4249 19.9966ZM18.5739 15.8516C18.2619 15.8516 17.9429 15.8916 17.6259 15.9686C16.7659 16.1806 16.0219 16.6606 15.6839 17.2246C15.5679 17.4176 15.4459 17.7136 15.5249 18.0276C15.6699 18.5986 16.4509 18.9976 17.4239 18.9976C17.7349 18.9976 18.0549 18.9576 18.3719 18.8806C19.2319 18.6686 19.9759 18.1886 20.3139 17.6246C20.4299 17.4316 20.5519 17.1356 20.4729 16.8216C20.3289 16.2496 19.5479 15.8516 18.5739 15.8516Z" fill="#967A13"/>
</svg>
