<svg width="24" height="24" viewBox="0 0 24 24" fill="none" xmlns="http://www.w3.org/2000/svg">
<g clip-path="url(#clip0_808_10151)">
<path d="M11.5 22H0.5C0.224 22 0 21.776 0 21.5V6.5C0 6.367 0.053 6.24 0.146 6.146L6.146 0.146C6.24 0.052 6.367 0 6.5 0H17.5C17.776 0 18 0.224 18 0.5V11.5C18 11.776 17.776 12 17.5 12C17.224 12 17 11.776 17 11.5V1H6.707L1 6.707V21H11.5C11.776 21 12 21.224 12 21.5C12 21.776 11.776 22 11.5 22Z" fill="#7A2C08"/>
<path d="M6.5 7H0.5C0.224 7 0 6.776 0 6.5C0 6.224 0.224 6 0.5 6H6V0.5C6 0.224 6.224 0 6.5 0C6.776 0 7 0.224 7 0.5V6.5C7 6.776 6.776 7 6.5 7Z" fill="#7A2C08"/>
<path d="M18.5 24C15.468 24 13 21.532 13 18.5C13 15.468 15.468 13 18.5 13C21.532 13 24 15.468 24 18.5C24 21.532 21.532 24 18.5 24ZM18.5 14C16.019 14 14 16.019 14 18.5C14 20.981 16.019 23 18.5 23C20.981 23 23 20.981 23 18.5C23 16.019 20.981 14 18.5 14Z" fill="#7A2C08"/>
<path d="M20.5 19H16.5C16.224 19 16 18.776 16 18.5C16 18.224 16.224 18 16.5 18H20.5C20.776 18 21 18.224 21 18.5C21 18.776 20.776 19 20.5 19Z" fill="white"/>
<path d="M18.5 21C18.224 21 18 20.776 18 20.5V16.5C18 16.224 18.224 16 18.5 16C18.776 16 19 16.224 19 16.5V20.5C19 20.776 18.776 21 18.5 21Z" fill="white"/>
<path d="M9.5 14C9.224 14 9 13.776 9 13.5V7.5C9 7.224 9.224 7 9.5 7H11.5C11.776 7 12 7.224 12 7.5C12 7.776 11.776 8 11.5 8H10V13.5C10 13.776 9.776 14 9.5 14Z" fill="white"/>
<path d="M8 15C6.879 15 6 14.341 6 13.5C6 12.659 6.879 12 8 12C9.121 12 10 12.659 10 13.5C10 14.341 9.121 15 8 15ZM8 13C7.39 13 7 13.296 7 13.5C7 13.704 7.39 14 8 14C8.61 14 9 13.704 9 13.5C9 13.296 8.61 13 8 13Z" fill="white"/>
</g>
<defs>
<clipPath id="clip0_808_10151">
<rect width="24" height="24" fill="white"/>
</clipPath>
</defs>
</svg>
