<svg width="24" height="24" viewBox="0 0 24 24" fill="none" xmlns="http://www.w3.org/2000/svg">
<path d="M3.99991 22.0308C3.79991 22.0308 3.60991 21.9097 3.53291 21.7118C3.43291 21.4538 3.56191 21.1638 3.81891 21.0648C9.60991 18.8268 13.4999 12.7448 13.4999 8.46875C13.4999 4.11775 10.5569 2.96875 8.99991 2.96875C6.66291 2.96875 4.49991 3.51375 4.49991 7.46875C4.49991 7.74475 4.27591 7.96875 3.99991 7.96875C3.72391 7.96875 3.49991 7.74475 3.49991 7.46875C3.49991 2.53875 6.63891 1.96875 8.99991 1.96875C11.6489 1.96875 14.4999 4.00275 14.4999 8.46875C14.4999 13.0567 10.5549 19.5327 4.18091 21.9977C4.12091 22.0197 4.05991 22.0308 3.99991 22.0308Z" fill="#9A82E2"/>
<path d="M6 9.96777C4.621 9.96777 3.5 8.84677 3.5 7.46777C3.5 6.08877 4.621 4.96777 6 4.96777C7.379 4.96777 8.5 6.08877 8.5 7.46777C8.5 8.84677 7.379 9.96777 6 9.96777ZM6 5.96777C5.173 5.96777 4.5 6.64077 4.5 7.46777C4.5 8.29477 5.173 8.96777 6 8.96777C6.827 8.96777 7.5 8.29477 7.5 7.46777C7.5 6.64077 6.827 5.96777 6 5.96777Z" fill="#9A82E2"/>
<path d="M18 8.96777C16.621 8.96777 15.5 7.84677 15.5 6.46777C15.5 5.08877 16.621 3.96777 18 3.96777C19.379 3.96777 20.5 5.08877 20.5 6.46777C20.5 7.84677 19.379 8.96777 18 8.96777ZM18 4.96777C17.173 4.96777 16.5 5.64077 16.5 6.46777C16.5 7.29477 17.173 7.96777 18 7.96777C18.827 7.96777 19.5 7.29477 19.5 6.46777C19.5 5.64077 18.827 4.96777 18 4.96777Z" fill="white"/>
<path d="M18 14.9678C16.621 14.9678 15.5 13.8468 15.5 12.4678C15.5 11.0888 16.621 9.96777 18 9.96777C19.379 9.96777 20.5 11.0888 20.5 12.4678C20.5 13.8468 19.379 14.9678 18 14.9678ZM18 10.9678C17.173 10.9678 16.5 11.6408 16.5 12.4678C16.5 13.2948 17.173 13.9678 18 13.9678C18.827 13.9678 19.5 13.2948 19.5 12.4678C19.5 11.6408 18.827 10.9678 18 10.9678Z" fill="white"/>
</svg>
