<svg width="25" height="24" viewBox="0 0 25 24" fill="none" xmlns="http://www.w3.org/2000/svg">
<path d="M9.24424 18.7328L7.59424 20.3828L8.34652 21.1351L9.99653 19.4851L9.24424 18.7328Z" fill="white"/>
<path d="M15.367 18.7311L14.6147 19.4834L16.2648 21.1334L17.017 20.3811L15.367 18.7311Z" fill="white"/>
<path d="M1.27466 19.5157L0.117188 20.6143L0.849575 21.3859L2.00704 20.2873L1.27466 19.5157Z" fill="white"/>
<path d="M2.0074 19.5203L1.2749 20.292L2.43237 21.3907L3.16486 20.6191L2.0074 19.5203Z" fill="white"/>
<path d="M4.67942 4.47649L0 7.94238L0.633232 8.79733L5.31265 5.33144L4.67942 4.47649Z" fill="white"/>
<path d="M23.3355 19.5184L22.603 20.29L23.7605 21.3888L24.493 20.6171L23.3355 19.5184Z" fill="white"/>
<path d="M22.6018 19.5157L21.4443 20.6143L22.1767 21.3859L23.3342 20.2873L22.6018 19.5157Z" fill="white"/>
<path d="M19.9238 4.46927L19.2905 5.32422L23.9699 8.79011L24.6032 7.93516L19.9238 4.46927Z" fill="white"/>
<path d="M9.32562 8.64844H8.26172V9.96058H9.32562V8.64844Z" fill="white"/>
<path d="M16.4321 9.74805H15.3682V11.585H16.4321V9.74805Z" fill="white"/>
<path d="M11.3541 9.35816H6.6091C6.3183 9.35816 6.07715 9.11701 6.07715 8.82621V6.30832C6.07715 6.01752 6.3183 5.77637 6.6091 5.77637H11.3541C11.6449 5.77637 11.886 6.01752 11.886 6.30832V8.82621C11.886 9.1241 11.652 9.35816 11.3541 9.35816ZM7.14105 8.29426H10.8221V6.84027H7.14105V8.29426Z" fill="#90DEC2"/>
<path d="M18.2691 10.1599H13.5241C13.2333 10.1599 12.9922 9.91876 12.9922 9.62797V7.11007C12.9922 6.81928 13.2333 6.57812 13.5241 6.57812H18.2691C18.5599 6.57812 18.8011 6.81928 18.8011 7.11007V9.62797C18.8011 9.92586 18.567 10.1599 18.2691 10.1599ZM14.0561 9.09602H17.7372V7.64202H14.0561V9.09602Z" fill="#90DEC2"/>
<path d="M7.6588 16.7558H4.41037C4.11957 16.7558 3.87842 16.5146 3.87842 16.2238V10.1667C3.87842 9.87592 4.11957 9.63477 4.41037 9.63477H9.71567C10.0065 9.63477 10.2476 9.87592 10.2476 10.1667V11.876H9.18372V10.6987H4.94232V15.6919H7.6588V16.7558Z" fill="#90DEC2"/>
<path d="M19.4324 16.2949H16.7798V15.231H18.9005V12.1244H14.4321V11.0605H19.4324C19.7232 11.0605 19.9644 11.3017 19.9644 11.5925V15.763C19.9644 16.0538 19.7303 16.2949 19.4324 16.2949Z" fill="#90DEC2"/>
<path d="M12.3043 20.5353C9.54525 20.5353 7.29688 18.287 7.29688 15.5279C7.29688 12.7689 9.54525 10.5205 12.3043 10.5205C15.0633 10.5205 17.3117 12.7689 17.3117 15.5279C17.3117 18.287 15.0633 20.5353 12.3043 20.5353ZM12.3043 11.5844C10.1268 11.5844 8.36077 13.3505 8.36077 15.5279C8.36077 17.7054 10.1268 19.4714 12.3043 19.4714C14.4817 19.4714 16.2478 17.7054 16.2478 15.5279C16.2478 13.3505 14.4817 11.5844 12.3043 11.5844Z" fill="#90DEC2"/>
<path d="M3.75789 5.49265C2.54505 5.49265 0.835719 5.31534 0.7577 4.33655C0.715144 3.8117 1.15489 3.38614 2.06275 3.05988C2.73655 2.81873 3.64441 2.64141 4.60192 2.5563C5.56652 2.47828 6.48147 2.49956 7.19074 2.62722C8.14115 2.79745 8.64473 3.14499 8.68729 3.66984C8.72984 4.1947 8.2901 4.62026 7.38224 4.94652C6.70844 5.18767 5.80058 5.36499 4.84307 5.4501C4.65157 5.46428 4.24019 5.49265 3.75789 5.49265ZM2.0131 4.23016C2.45994 4.37202 3.41035 4.49968 4.75086 4.3862C6.09137 4.27272 7.00633 3.98901 7.42479 3.77623C6.97796 3.63438 6.02754 3.50671 4.68703 3.62019C3.34652 3.73368 2.43157 4.01738 2.0131 4.23016Z" fill="#90DEC2"/>
<path d="M2.1762 7.38574H1.1123V20.2944H2.1762V7.38574Z" fill="white"/>
<path d="M20.8512 5.49265C20.3618 5.49265 19.9575 5.46428 19.766 5.4501C18.8014 5.37208 17.9006 5.19476 17.2268 4.94652C16.319 4.62026 15.8792 4.1947 15.9218 3.66984C15.9643 3.14499 16.4679 2.79745 17.4183 2.62722C18.1276 2.49956 19.0425 2.47828 20.0071 2.5563C20.9717 2.63432 21.8725 2.81163 22.5463 3.05988C23.4542 3.38614 23.8939 3.8117 23.8513 4.33655C23.7733 5.31534 22.064 5.49265 20.8512 5.49265ZM17.1843 3.77623C17.5956 3.98901 18.5177 4.27272 19.8582 4.3862C21.1987 4.49968 22.1491 4.37202 22.596 4.23016C22.1846 4.01738 21.2625 3.73368 19.922 3.62019C18.5815 3.50671 17.6311 3.64147 17.1843 3.77623Z" fill="#90DEC2"/>
<path d="M23.4965 7.38574H22.4326V20.2944H23.4965V7.38574Z" fill="white"/>
</svg>
