<svg width="24" height="24" viewBox="0 0 24 24" fill="none" xmlns="http://www.w3.org/2000/svg">
<g clip-path="url(#clip0_629_24100)">
<path d="M10 9H7C6.724 9 6.5 8.776 6.5 8.5V4.5C6.5 4.224 6.724 4 7 4H10C10.276 4 10.5 4.224 10.5 4.5V8.5C10.5 8.776 10.276 9 10 9ZM7.5 8H9.5V5H7.5V8Z" fill="white"/>
<path d="M17 9H14C13.724 9 13.5 8.776 13.5 8.5V4.5C13.5 4.224 13.724 4 14 4H17C17.276 4 17.5 4.224 17.5 4.5V8.5C17.5 8.776 17.276 9 17 9ZM14.5 8H16.5V5H14.5V8Z" fill="white"/>
<path d="M22 9H21C20.724 9 20.5 8.776 20.5 8.5V4.5C20.5 4.224 20.724 4 21 4H22C22.827 4 23.5 4.673 23.5 5.5V7.5C23.5 8.327 22.827 9 22 9ZM21.5 8H22C22.275 8 22.5 7.775 22.5 7.5V5.5C22.5 5.225 22.275 5 22 5H21.5V8Z" fill="white"/>
<path d="M3 9H2C1.173 9 0.5 8.327 0.5 7.5V5.5C0.5 4.673 1.173 4 2 4H3C3.276 4 3.5 4.224 3.5 4.5V8.5C3.5 8.776 3.276 9 3 9ZM2 5C1.725 5 1.5 5.225 1.5 5.5V7.5C1.5 7.775 1.725 8 2 8H2.5V5H2Z" fill="white"/>
<path d="M6 24H4C3.173 24 2.5 23.327 2.5 22.5V1.5C2.5 0.673 3.173 0 4 0H6C6.827 0 7.5 0.673 7.5 1.5V22.5C7.5 23.327 6.827 24 6 24ZM4 1C3.725 1 3.5 1.225 3.5 1.5V22.5C3.5 22.775 3.725 23 4 23H6C6.275 23 6.5 22.775 6.5 22.5V1.5C6.5 1.225 6.275 1 6 1H4Z" fill="#967A13"/>
<path d="M13 20H11C10.173 20 9.5 19.327 9.5 18.5V1.5C9.5 0.673 10.173 0 11 0H13C13.827 0 14.5 0.673 14.5 1.5V18.5C14.5 19.327 13.827 20 13 20ZM11 1C10.725 1 10.5 1.225 10.5 1.5V18.5C10.5 18.775 10.725 19 11 19H13C13.275 19 13.5 18.775 13.5 18.5V1.5C13.5 1.225 13.275 1 13 1H11Z" fill="#967A13"/>
<path d="M20 16H18C17.173 16 16.5 15.327 16.5 14.5V1.5C16.5 0.673 17.173 0 18 0H20C20.827 0 21.5 0.673 21.5 1.5V14.5C21.5 15.327 20.827 16 20 16ZM18 1C17.725 1 17.5 1.225 17.5 1.5V14.5C17.5 14.775 17.725 15 18 15H20C20.275 15 20.5 14.775 20.5 14.5V1.5C20.5 1.225 20.275 1 20 1H18Z" fill="#967A13"/>
<path d="M5 6.9997C4.87 6.9997 4.74 6.9497 4.649 6.8497C4.549 6.7597 4.5 6.6297 4.5 6.4997C4.5 6.3697 4.55 6.2397 4.64 6.1487C4.84 5.9497 5.161 5.9597 5.35 6.1387C5.451 6.2397 5.5 6.3687 5.5 6.4987C5.5 6.6287 5.45 6.7587 5.35 6.8487C5.26 6.9497 5.13 6.9997 5 6.9997Z" fill="#967A13"/>
<path d="M12 6.9997C11.87 6.9997 11.75 6.9497 11.649 6.8587C11.549 6.7587 11.5 6.6297 11.5 6.4997C11.5 6.3697 11.55 6.2397 11.64 6.1487C11.85 5.9497 12.161 5.9597 12.35 6.1387C12.451 6.2397 12.5 6.3687 12.5 6.4987C12.5 6.6287 12.45 6.7587 12.359 6.8487C12.25 6.9497 12.13 6.9997 12 6.9997Z" fill="#967A13"/>
<path d="M19 6.9997C18.87 6.9997 18.75 6.9497 18.649 6.8587C18.549 6.7587 18.5 6.6297 18.5 6.4997C18.5 6.3697 18.55 6.2397 18.64 6.1487C18.85 5.9497 19.161 5.9597 19.35 6.1387C19.451 6.2397 19.5 6.3687 19.5 6.4987C19.5 6.6287 19.45 6.7587 19.35 6.8487C19.26 6.9497 19.13 6.9997 19 6.9997Z" fill="#967A13"/>
</g>
<defs>
<clipPath id="clip0_629_24100">
<rect width="24" height="24" fill="white"/>
</clipPath>
</defs>
</svg>
