<svg width="24" height="24" viewBox="0 0 24 24" fill="none" xmlns="http://www.w3.org/2000/svg">
<path d="M19.1782 21.9916C19.0535 21.9916 18.9288 21.9457 18.8304 21.8472L4.10368 7.11392C3.91336 6.9236 3.91336 6.60859 4.10368 6.41827L6.0003 4.52165C6.19062 4.33133 6.50563 4.33133 6.69595 4.52165L21.4292 19.2549C21.6196 19.4453 21.6196 19.7603 21.4292 19.9506L19.5261 21.8472C19.4342 21.9391 19.3095 21.9916 19.1782 21.9916ZM5.14715 6.76609L19.1782 20.8037L20.3792 19.6028L6.34156 5.56512L5.14715 6.76609Z" fill="#00CFF5"/>
<path d="M4.45154 7.25858C4.44498 7.25858 4.44498 7.25858 4.43842 7.25858C4.3006 7.25202 4.17591 7.19295 4.08403 7.09451L0.966739 3.59659C0.796108 3.39971 0.802671 3.10438 0.986427 2.92063L2.50241 1.40464C2.68617 1.22088 2.98149 1.21432 3.17837 1.38495L6.6763 4.50224C6.77474 4.59412 6.83381 4.71881 6.84037 4.85663C6.84693 4.99444 6.79443 5.1257 6.69599 5.21758L4.79936 7.1142C4.70749 7.20608 4.57623 7.25858 4.45154 7.25858ZM2.00365 3.28814L4.46467 6.05104L5.62627 4.88944L2.86336 2.42842L2.00365 3.28814Z" fill="#00CFF5"/>
<path d="M8.72296 9.1496C8.97925 8.89331 8.97925 8.47778 8.72296 8.2215C8.46667 7.96521 8.05115 7.96521 7.79486 8.2215C7.53857 8.47778 7.53857 8.89331 7.79486 9.1496C8.05115 9.40588 8.46667 9.40588 8.72296 9.1496Z" fill="white"/>
<path d="M11.7259 12.1457C11.9822 11.8894 11.9822 11.4739 11.7259 11.2176C11.4696 10.9613 11.0541 10.9613 10.7978 11.2176C10.5415 11.4739 10.5415 11.8894 10.7978 12.1457C11.0541 12.402 11.4696 12.402 11.7259 12.1457Z" fill="white"/>
<path d="M14.7286 15.1515C14.9849 14.8953 14.9849 14.4797 14.7286 14.2235C14.4723 13.9672 14.0568 13.9672 13.8005 14.2235C13.5442 14.4797 13.5442 14.8953 13.8005 15.1515C14.0568 15.4078 14.4723 15.4078 14.7286 15.1515Z" fill="white"/>
<path d="M17.7269 18.1535C17.9832 17.8972 17.9832 17.4817 17.7269 17.2254C17.4706 16.9691 17.0551 16.9691 16.7988 17.2254C16.5425 17.4817 16.5425 17.8972 16.7988 18.1535C17.0551 18.4098 17.4706 18.4098 17.7269 18.1535Z" fill="white"/>
<path d="M3.72586 3.44846L3.02979 4.14453L4.03677 5.15152L4.73285 4.45544L3.72586 3.44846Z" fill="white"/>
<path d="M20.4973 23.9997C20.4776 23.9997 20.4645 23.9997 20.4448 23.9997C20.3004 23.9866 20.1626 23.9013 20.0839 23.7766L18.7713 21.7618C18.6466 21.565 18.6729 21.309 18.8369 21.145L20.7336 19.2483C20.8976 19.0843 21.1536 19.058 21.3505 19.1827L23.3652 20.4952C23.4899 20.574 23.5687 20.7118 23.5884 20.8562C23.6015 21.0006 23.549 21.1515 23.444 21.2565L20.8517 23.8488C20.7533 23.9538 20.622 23.9997 20.4973 23.9997ZM19.8148 21.565L20.5761 22.7331L22.3152 20.994L21.147 20.2327L19.8148 21.565Z" fill="#00CFF5"/>
</svg>
