<svg width="25" height="25" viewBox="0 0 25 25" fill="none" xmlns="http://www.w3.org/2000/svg">
<path d="M6.22887 24.368C4.67119 24.368 3.07178 23.7491 1.84789 22.5183C-0.502547 20.1678 -0.627718 16.4614 1.56973 14.2639C2.21645 13.6172 3.03006 13.1443 3.92016 12.894C4.98412 12.595 5.88118 11.7814 6.31232 10.7104C6.56266 10.0915 6.93122 9.53523 7.39714 9.06932L7.43191 9.03455C8.12035 8.36002 9.11476 8.13749 10.0327 8.45737C10.9437 8.77725 11.5904 9.57 11.7086 10.5296C11.7434 10.8078 11.8129 11.086 11.9102 11.3502L10.9297 11.7118C10.8046 11.3711 10.7142 11.0164 10.6724 10.6618C10.6029 10.0915 10.2343 9.63954 9.69194 9.45179C9.14953 9.26403 8.57235 9.3892 8.16207 9.79253L8.13426 9.82034C7.7657 10.1889 7.47363 10.627 7.27892 11.1138C6.7226 12.4837 5.5752 13.5338 4.19832 13.9162C3.46816 14.1179 2.83535 14.4864 2.30685 15.0219C0.512729 16.816 0.6379 19.8549 2.58501 21.802C4.53211 23.7491 7.57099 23.8743 9.3651 22.0802C9.8936 21.5517 10.2622 20.9119 10.4708 20.1887C10.8532 18.8118 11.9033 17.6644 13.2732 17.1081C13.76 16.9134 14.1981 16.6213 14.5667 16.2527C14.97 15.8494 15.276 15.3626 15.4707 14.8272C14.358 14.855 13.2593 14.4795 12.3692 13.7424L13.0368 12.9427C13.8921 13.652 14.9978 13.9371 16.0687 13.7146C16.2356 13.6798 16.4164 13.7285 16.5346 13.8536C16.6598 13.9719 16.7154 14.1457 16.6876 14.3195C16.5068 15.3487 16.0339 16.2736 15.3038 16.9968C14.8309 17.4697 14.2815 17.8313 13.6626 18.0816C12.5917 18.5128 11.7712 19.4098 11.4791 20.4738C11.2288 21.3639 10.7559 22.1775 10.1092 22.8242C9.05218 23.8465 7.65443 24.3611 6.22887 24.368Z" fill="#7A2C08"/>
<path d="M10.0466 16.4543C9.90752 16.4543 9.7754 16.3986 9.67804 16.3013L8.05777 14.681C7.96042 14.5836 7.90479 14.4446 7.90479 14.3055C7.90479 14.1664 7.96737 14.0273 8.07168 13.93L17.39 5.22363L18.0993 5.98857L9.17736 14.3264L10.0327 15.1817L18.44 6.19023L19.205 6.89953L10.436 16.2874C10.3387 16.3917 10.2065 16.4473 10.0605 16.4543C10.0536 16.4543 10.0536 16.4543 10.0466 16.4543Z" fill="white"/>
<path d="M19.358 7.48322C19.2259 7.48322 19.0938 7.43455 18.9895 7.33024L17.0284 5.36922C16.8268 5.16756 16.8268 4.84072 17.0284 4.63211L20.7488 0.856112C20.8462 0.758756 20.9783 0.703125 21.1174 0.703125C21.2564 0.703125 21.3886 0.758756 21.4859 0.856112L23.5095 2.87971C23.6069 2.97707 23.6625 3.10919 23.6625 3.24827C23.6625 3.38735 23.6069 3.51947 23.5095 3.61683L19.7335 7.33719C19.6223 7.43455 19.4901 7.48322 19.358 7.48322ZM18.1341 5.00066L19.365 6.23151L22.4038 3.24827L21.1243 1.96874L18.1341 5.00066Z" fill="#7A2C08"/>
<path d="M17.3247 1.82102L16.5872 2.55859L17.4477 3.41909L18.1852 2.68152L17.3247 1.82102Z" fill="white"/>
<path d="M18.6939 0.450906L17.9563 1.18848L18.8168 2.04898L19.5544 1.31141L18.6939 0.450906Z" fill="white"/>
<path d="M21.6797 6.17356L20.9421 6.91113L21.8026 7.77163L22.5402 7.03406L21.6797 6.17356Z" fill="white"/>
<path d="M23.054 4.8093L22.3164 5.54688L23.1769 6.40737L23.9145 5.6698L23.054 4.8093Z" fill="white"/>
<path d="M4.38747 16.0769L3.6499 16.8145L5.89703 19.0616L6.6346 18.324L4.38747 16.0769Z" fill="white"/>
<path d="M7.51076 19.199L6.77319 19.9365L7.54518 20.7085L8.28275 19.9709L7.51076 19.199Z" fill="white"/>
</svg>
