<svg width="26" height="24" viewBox="0 0 26 24" fill="none" xmlns="http://www.w3.org/2000/svg">
<path d="M25.0172 19.9996H0.533795C0.241987 19.9996 0 19.7576 0 19.4658V4.53379C0 4.24199 0.241987 4 0.533795 4H25.0172C25.309 4 25.551 4.24199 25.551 4.53379V19.4729C25.551 19.7647 25.309 19.9996 25.0172 19.9996ZM1.06759 18.932H24.4834V5.06759H1.06759V18.932Z" fill="#9A82E2"/>
<path d="M23.0954 19.9996H6.44102C6.14921 19.9996 5.90723 19.7576 5.90723 19.4658V11.5016C5.90723 11.2098 6.14921 10.9678 6.44102 10.9678H23.0954C23.3872 10.9678 23.6292 11.2098 23.6292 11.5016V19.4658C23.6292 19.7647 23.3872 19.9996 23.0954 19.9996ZM6.97482 18.932H22.5616V12.0354H6.97482V18.932Z" fill="#9A82E2"/>
<path d="M9.89303 11.1309H8.82544V15.3941H9.89303V11.1309Z" fill="#9A82E2"/>
<path d="M11.6936 11.1309H10.626V15.3941H11.6936V11.1309Z" fill="#9A82E2"/>
<path d="M16.6259 11.1309H15.5583V15.3941H16.6259V11.1309Z" fill="#9A82E2"/>
<path d="M18.4338 11.1309H17.3662V15.3941H18.4338V11.1309Z" fill="#9A82E2"/>
<path d="M21.5654 11.1309H20.4978V15.3941H21.5654V11.1309Z" fill="#9A82E2"/>
<path d="M4.07827 10.5911C2.6477 10.5911 1.48047 9.42388 1.48047 7.99331C1.48047 6.56274 2.6477 5.39551 4.07827 5.39551C5.50884 5.39551 6.67607 6.56274 6.67607 7.99331C6.67607 9.42388 5.51596 10.5911 4.07827 10.5911ZM4.07827 6.4631C3.23132 6.4631 2.54806 7.14635 2.54806 7.99331C2.54806 8.84026 3.23132 9.52352 4.07827 9.52352C4.92522 9.52352 5.60848 8.84026 5.60848 7.99331C5.60848 7.14635 4.92522 6.4631 4.07827 6.4631Z" fill="white"/>
<path d="M21.4657 10.5911C20.0352 10.5911 18.8679 9.42388 18.8679 7.99331C18.8679 6.56274 20.0352 5.39551 21.4657 5.39551C22.8963 5.39551 24.0635 6.56274 24.0635 7.99331C24.0635 9.42388 22.8963 10.5911 21.4657 10.5911ZM21.4657 6.4631C20.6188 6.4631 19.9355 7.14635 19.9355 7.99331C19.9355 8.84026 20.6188 9.52352 21.4657 9.52352C22.3127 9.52352 22.9959 8.84026 22.9959 7.99331C22.9959 7.14635 22.3056 6.4631 21.4657 6.4631Z" fill="white"/>
<path d="M9.43038 6.49805H8.36279V7.81474H9.43038V6.49805Z" fill="white"/>
<path d="M12.0637 6.49805H10.9961V7.81474H12.0637V6.49805Z" fill="white"/>
<path d="M14.6972 6.49805H13.6296V7.81474H14.6972V6.49805Z" fill="white"/>
<path d="M2.84689 13.6865H1.7793V14.7541H2.84689V13.6865Z" fill="white"/>
<path d="M5.15987 13.6865H4.09229V14.7541H5.15987V13.6865Z" fill="white"/>
<path d="M2.84689 15.9287H1.7793V16.9963H2.84689V15.9287Z" fill="white"/>
<path d="M5.15987 15.9287H4.09229V16.9963H5.15987V15.9287Z" fill="white"/>
</svg>
