<svg width="36" height="36" viewBox="0 0 36 36" fill="none" xmlns="http://www.w3.org/2000/svg">
<path d="M2.10938 1.125C2.15625 0.421875 2.53125 0.046875 3.23438 0H32.4844C33.1875 0.046875 33.5625 0.421875 33.6094 1.125C33.5625 1.82812 33.1875 2.20312 32.4844 2.25H3.23438C2.53125 2.20312 2.15625 1.82812 2.10938 1.125ZM0.984375 5.625C1.03125 4.92188 1.40625 4.54688 2.10938 4.5H33.6094C34.3125 4.54688 34.6875 4.92188 34.7344 5.625C34.6875 6.32812 34.3125 6.70312 33.6094 6.75H2.10938C1.40625 6.70312 1.03125 6.32812 0.984375 5.625ZM16.1719 22.7812C16.2656 21.8906 16.8281 21.4219 17.8594 21.375C18.8906 21.4219 19.4531 21.8906 19.5469 22.7812C19.4531 23.625 18.8906 24.0938 17.8594 24.1875C16.8281 24.0938 16.2656 23.625 16.1719 22.7812ZM6.60938 22.5C6.70312 19.9688 7.80469 17.8359 9.91406 16.1016C12.0234 14.4141 14.6719 13.5469 17.8594 13.5C21.0469 13.5469 23.6953 14.4141 25.8047 16.1016C27.9141 17.8359 29.0156 19.9688 29.1094 22.5C29.0156 25.0312 27.9141 27.1641 25.8047 28.8984C23.6953 30.5859 21.0469 31.4531 17.8594 31.5C14.6719 31.4531 12.0234 30.5859 9.91406 28.8984C7.80469 27.1641 6.70312 25.0312 6.60938 22.5ZM17.8594 29.25C20.625 29.1562 22.8047 28.4531 24.3984 27.1406C25.9922 25.7812 26.8125 24.2344 26.8594 22.5C26.8125 20.7656 25.9922 19.2188 24.3984 17.8594C22.8047 16.5469 20.625 15.8438 17.8594 15.75C15.0938 15.8438 12.9141 16.5469 11.3203 17.8594C9.72656 19.2188 8.90625 20.7656 8.85938 22.5C8.90625 24.2344 9.72656 25.7812 11.3203 27.1406C12.9141 28.4531 15.0938 29.1562 17.8594 29.25ZM31.6406 9C32.8594 9.04688 33.8203 9.46875 34.5234 10.2656C35.2734 11.1094 35.6016 12.1172 35.5078 13.2891L33.8203 32.4141C33.7266 33.4453 33.3047 34.2891 32.5547 34.9453C31.8516 35.6484 30.9844 36 29.9531 36H5.83594C4.75781 36 3.86719 35.6484 3.16406 34.9453C2.41406 34.2891 1.99219 33.4453 1.89844 32.4141L0.140625 13.2891C0.046875 12.1172 0.375 11.1094 1.125 10.2656C1.875 9.46875 2.85938 9.04688 4.07812 9H31.6406ZM4.14844 32.2031C4.28906 33.1406 4.85156 33.6562 5.83594 33.75H29.9531C30.8906 33.6562 31.4297 33.1406 31.5703 32.2031L33.3281 13.0781C33.375 12.5625 33.2344 12.1406 32.9062 11.8125C32.5781 11.4375 32.1562 11.25 31.6406 11.25H4.07812C3.5625 11.25 3.14062 11.4375 2.8125 11.8125C2.48438 12.1406 2.34375 12.5625 2.39062 13.0781L4.14844 32.2031Z" fill="white"/>
</svg>
