<svg width="37" height="32" viewBox="0 0 37 32" fill="none" xmlns="http://www.w3.org/2000/svg">
<path d="M29.1797 6.32812C31.1953 6.9375 32.8125 7.78125 34.0312 8.85938C35.25 9.89063 35.8828 11.1328 35.9297 12.5859V23.9062C35.7891 26.1562 34.0312 28.0078 30.6562 29.4609C27.2344 30.9609 22.9922 31.7344 17.9297 31.7812C12.8672 31.7344 8.64844 30.9609 5.27344 29.4609C1.89844 27.9609 0.140625 26.0625 0 23.7656V12.5859C0.046875 10.8047 0.960938 9.32813 2.74219 8.15625C4.52344 7.03125 6.77344 6.1875 9.49219 5.625C12.2109 5.0625 15.0469 4.78125 18 4.78125C20.8125 4.78125 23.5312 5.03906 26.1562 5.55469L34.3125 0.421875C34.875 0.140625 35.3672 0.257813 35.7891 0.773438C36.1172 1.38281 36.0234 1.89844 35.5078 2.32031L29.1797 6.32812ZM6.75 27.7031V18.9844C4.92188 18.375 3.42188 17.625 2.25 16.7344V23.9062C2.29688 25.1719 3.79688 26.4375 6.75 27.7031ZM16.875 29.5312V20.5312C14.1094 20.4375 11.4844 20.1094 9 19.5469V28.4062C11.2031 29.0156 13.8281 29.3906 16.875 29.5312ZM27 28.3359V19.5469C24.5156 20.1094 21.8906 20.4375 19.125 20.5312V29.4609C22.1719 29.3672 24.7969 28.9922 27 28.3359ZM33.75 23.9062V16.7344C32.5781 17.625 31.0781 18.375 29.25 18.9844V27.6328C32.2031 26.4141 33.7031 25.1719 33.75 23.9062ZM17.9297 18.2812C22.4297 18.2344 26.1562 17.6719 29.1094 16.5938C32.1094 15.5156 33.6562 14.2031 33.75 12.6562C33.7031 11.625 33.0469 10.7109 31.7812 9.91406C30.4688 9.11719 28.7344 8.46094 26.5781 7.94531L17.5078 13.5703C16.8516 13.8516 16.3359 13.7344 15.9609 13.2188C15.6328 12.6094 15.75 12.0938 16.3125 11.6719L23.2734 7.3125C21.4922 7.125 19.7344 7.03125 18 7.03125C13.5469 7.07813 9.84375 7.64063 6.89062 8.71875C3.89062 9.75 2.34375 11.0625 2.25 12.6562C2.34375 14.2031 3.86719 15.5156 6.82031 16.5938C9.82031 17.6719 13.5234 18.2344 17.9297 18.2812Z" fill="white"/>
</svg>
