<svg width="32" height="36" viewBox="0 0 32 36" fill="none" xmlns="http://www.w3.org/2000/svg">
<path d="M27 0C28.2656 0.046875 29.3203 0.492188 30.1641 1.33594C31.0078 2.17969 31.4531 3.23438 31.5 4.5V27C31.4062 28.7344 30.6562 30.0234 29.25 30.8672V33.75C29.25 34.4062 29.0391 34.9453 28.6172 35.3672C28.1953 35.7891 27.6562 36 27 36H4.5C3.84375 36 3.30469 35.7891 2.88281 35.3672C2.46094 34.9453 2.25 34.4062 2.25 33.75V30.8672C0.84375 30.0234 0.09375 28.7344 0 27V4.5C0.046875 3.23438 0.492188 2.17969 1.33594 1.33594C2.17969 0.492188 3.23438 0.046875 4.5 0H27ZM27 33.75V31.5H4.5V33.75H27ZM29.25 27V4.5C29.25 3.84375 29.0391 3.30469 28.6172 2.88281C28.1953 2.46094 27.6562 2.25 27 2.25H4.5C3.84375 2.25 3.30469 2.46094 2.88281 2.88281C2.46094 3.30469 2.25 3.84375 2.25 4.5V27C2.25 27.6562 2.46094 28.1953 2.88281 28.6172C3.30469 29.0391 3.84375 29.25 4.5 29.25H27C27.6562 29.25 28.1953 29.0391 28.6172 28.6172C29.0391 28.1953 29.25 27.6562 29.25 27ZM22.4297 4.5C23.7422 4.54688 24.8203 4.99219 25.6641 5.83594C26.5078 6.67969 26.9531 7.73438 27 9V13.5C26.9531 14.7656 26.5078 15.8203 25.6641 16.6641C24.8203 17.5078 23.7422 17.9531 22.4297 18H8.92969C7.71094 17.9531 6.67969 17.5078 5.83594 16.6641C4.99219 15.8203 4.54688 14.7656 4.5 13.5L4.42969 9C4.47656 7.73438 4.92188 6.67969 5.76562 5.83594C6.60938 4.99219 7.66406 4.54688 8.92969 4.5H22.4297ZM24.75 13.5V9C24.75 8.34375 24.5391 7.80469 24.1172 7.38281C23.6953 6.96094 23.1562 6.75 22.5 6.75H9C8.34375 6.75 7.80469 6.96094 7.38281 7.38281C6.96094 7.80469 6.75 8.34375 6.75 9V13.5C6.75 14.1562 6.96094 14.6953 7.38281 15.1172C7.80469 15.5391 8.34375 15.75 9 15.75H22.5C23.1562 15.75 23.6953 15.5391 24.1172 15.1172C24.5391 14.6953 24.75 14.1562 24.75 13.5ZM6.75 21.9375C7.78125 22.0312 8.34375 22.5938 8.4375 23.625C8.34375 24.6562 7.78125 25.2188 6.75 25.3125C5.71875 25.2188 5.15625 24.6562 5.0625 23.625C5.15625 22.5938 5.71875 22.0312 6.75 21.9375ZM25.875 22.5C26.5781 22.5469 26.9531 22.9219 27 23.625C26.9531 24.3281 26.5781 24.7031 25.875 24.75H16.875C16.1719 24.7031 15.7969 24.3281 15.75 23.625C15.7969 22.9219 16.1719 22.5469 16.875 22.5H25.875Z" fill="white"/>
</svg>
