<svg width="46" height="37" viewBox="0 0 46 37" fill="none" xmlns="http://www.w3.org/2000/svg">
<path d="M33.4688 7.10156C33 7.10156 32.6016 6.9375 32.2734 6.60938C31.9453 6.28125 31.7812 5.88281 31.7812 5.41406C31.875 4.38281 32.4375 3.82031 33.4688 3.72656C34.5 3.82031 35.0625 4.38281 35.1562 5.41406C35.0625 6.44531 34.5 7.00781 33.4688 7.10156ZM36.8438 3.72656C36.375 3.72656 35.9766 3.5625 35.6484 3.23438C35.3203 2.90625 35.1562 2.50781 35.1562 2.03906C35.25 1.00781 35.8125 0.445312 36.8438 0.351562C37.875 0.445312 38.4375 1.00781 38.5312 2.03906C38.4375 3.07031 37.875 3.63281 36.8438 3.72656ZM34.1719 13.9219C35.0625 14.9531 35.7188 16.1719 36.1406 17.5781C36.75 20.2969 36.1875 22.5938 34.4531 24.4688C34.1719 24.75 33.8672 24.9844 33.5391 25.1719C33.3516 25.125 33.1641 25.1016 32.9766 25.1016C31.3359 25.1953 30.0938 25.8516 29.25 27.0703C28.4062 28.2891 28.2422 29.6719 28.7578 31.2188C28.4297 32.2969 27.8438 33.2578 27 34.1016C25.4531 35.6016 23.5547 36.3516 21.3047 36.3516C19.6172 36.3516 17.9297 35.9062 16.2422 35.0156L15.8203 35.6484C15.7734 35.6953 15.7266 35.7422 15.6797 35.7891C15.5859 35.9297 15.4453 36.0469 15.2578 36.1406C15.2109 36.1875 15.1406 36.2109 15.0469 36.2109C14.9062 36.2578 14.7422 36.3047 14.5547 36.3516C14.5547 36.3516 14.5312 36.3516 14.4844 36.3516C14.3906 36.3516 14.2969 36.3281 14.2031 36.2812C14.1562 36.2812 14.1328 36.2812 14.1328 36.2812C14.0859 36.2812 14.0156 36.2812 13.9219 36.2812C13.6875 36.1875 13.5 36.0469 13.3594 35.8594L9.77344 32.3438C9.39844 31.9688 9.23438 31.5234 9.28125 31.0078C9.32812 30.5391 9.5625 30.1641 9.98438 29.8828L10.6875 29.4609C9.70312 27.5391 9.25781 25.5938 9.35156 23.625C9.49219 21.7031 10.2422 20.0625 11.6016 18.7031C12.3984 17.8594 13.3594 17.2734 14.4844 16.9453C15 17.1328 15.5391 17.2266 16.1016 17.2266C17.4609 17.2266 18.5859 16.7109 19.4766 15.6797C20.3672 14.6484 20.7188 13.4531 20.5312 12.0938C20.7188 11.8125 20.9531 11.5312 21.2344 11.25C21.9844 10.5 22.8047 10.0078 23.6953 9.77344C24.5391 9.49219 25.3359 9.35156 26.0859 9.35156C26.7422 9.35156 27.4219 9.42188 28.125 9.5625C29.4844 9.9375 30.7031 10.5938 31.7812 11.5312L32.2031 11.9531L43.4531 0.703125C43.9688 0.234375 44.4844 0.234375 45 0.703125C45.4688 1.21875 45.4688 1.73438 45 2.25L33.75 13.5L34.1719 13.9219ZM14.4141 33.75L18.1406 28.0547L17.6484 27.5625L12.0234 31.2891L14.4141 33.75ZM32.8359 22.8516C33.9609 21.6328 34.3125 20.0625 33.8906 18.1406C33.7031 17.25 33.2578 16.3828 32.5547 15.5391L32.2031 15.1172L24.75 22.5C24.5156 22.7344 24.2578 22.8516 23.9766 22.8516C23.6953 22.8516 23.4375 22.7344 23.2031 22.5C22.7344 21.9844 22.7344 21.4688 23.2031 20.9531L30.5859 13.5L30.1641 13.1484C29.3203 12.4453 28.4531 12 27.5625 11.8125C27.0938 11.6719 26.6016 11.6016 26.0859 11.6016C24.7734 11.6016 23.6953 12 22.8516 12.7969C22.8047 14.4375 22.2422 15.8906 21.1641 17.1562C20.3203 18.0938 19.3359 18.75 18.2109 19.125C17.0391 19.5 15.8438 19.5469 14.625 19.2656C14.1094 19.5 13.6406 19.8281 13.2188 20.25C12.2812 21.2344 11.7422 22.4297 11.6016 23.8359C11.5078 25.2422 11.8359 26.6953 12.5859 28.1953L16.8047 25.3828C16.9453 25.2891 17.1094 25.2188 17.2969 25.1719C17.3438 25.1719 17.3906 25.1719 17.4375 25.1719C17.5312 25.125 17.625 25.1016 17.7188 25.1016C17.7656 25.1016 17.7891 25.1016 17.7891 25.1016C18.1641 25.1484 18.5156 25.3125 18.8438 25.5938L20.1094 26.8594C20.6719 27.4688 20.7422 28.1484 20.3203 28.8984L17.5078 33.1875C18.7734 33.7969 20.0391 34.1016 21.3047 34.1016C21.8672 34.1016 22.5234 34.0078 23.2734 33.8203C24.0234 33.5859 24.75 33.1406 25.4531 32.4844C25.875 32.0625 26.2031 31.5938 26.4375 31.0781C25.9688 29.0156 26.3906 27.1406 27.7031 25.4531C29.0156 23.8125 30.7266 22.9453 32.8359 22.8516ZM43.5938 7.10156C44.6719 7.19531 45.2578 7.75781 45.3516 8.78906C45.2109 9.82031 44.625 10.3828 43.5938 10.4766C42.5625 10.3828 42 9.82031 41.9062 8.78906C42 7.75781 42.5625 7.19531 43.5938 7.10156ZM40.2188 10.4766C41.2969 10.5703 41.8594 11.1328 41.9062 12.1641C41.8125 13.1953 41.25 13.7578 40.2188 13.8516C39.1875 13.7578 38.625 13.1953 38.5312 12.1641C38.625 11.1328 39.1875 10.5703 40.2188 10.4766ZM24.75 0.703125C25.2188 1.21875 25.2188 1.73438 24.75 2.25L2.25 24.75C2.01562 24.9844 1.75781 25.1016 1.47656 25.1016C1.19531 25.1016 0.9375 24.9844 0.703125 24.75C0.234375 24.2344 0.234375 23.7188 0.703125 23.2031L23.2031 0.703125C23.7188 0.234375 24.2344 0.234375 24.75 0.703125Z" fill="white"/>
</svg>
