<svg width="36" height="36" viewBox="0 0 36 36" fill="none" xmlns="http://www.w3.org/2000/svg">
<path d="M33.5391 18.9844C35.1328 19.875 35.9531 21.2344 36 23.0625V31.5C35.9531 32.7656 35.5078 33.8203 34.6641 34.6641C33.8203 35.5078 32.7656 35.9531 31.5 36H4.5C3.23438 35.9531 2.17969 35.5078 1.33594 34.6641C0.492188 33.8203 0.046875 32.7656 0 31.5V13.0078C0.09375 9.30469 1.35938 6.23438 3.79688 3.79688C6.23437 1.35937 9.30469 0.09375 13.0078 0H14.0625C17.7188 0.09375 20.7656 1.35937 23.2031 3.79688C25.6406 6.1875 26.9062 9.21094 27 12.8672C27.0469 14.6953 27.8438 16.0547 29.3906 16.9453L33.5391 18.9844ZM31.5 33.75C32.1562 33.75 32.6953 33.5391 33.1172 33.1172C33.5391 32.6953 33.75 32.1562 33.75 31.5V27H30.375V29.25C30.3281 29.9531 29.9531 30.3281 29.25 30.375C28.5469 30.3281 28.1719 29.9531 28.125 29.25V27H25.875V29.25C25.8281 29.9531 25.4531 30.3281 24.75 30.375C24.0469 30.3281 23.6719 29.9531 23.625 29.25V27H16.875V29.25C16.8281 29.9531 16.4531 30.3281 15.75 30.375C15.0469 30.3281 14.6719 29.9531 14.625 29.25V27H12.375V29.25C12.3281 29.9531 11.9297 30.3281 11.1797 30.375C10.5703 30.3281 10.2188 29.9531 10.125 29.25V27H7.875V29.25C7.82812 29.9531 7.42969 30.3281 6.67969 30.375C6.07031 30.3281 5.71875 29.9531 5.625 29.25V27H2.25V31.5C2.25 32.1562 2.46094 32.6953 2.88281 33.1172C3.30469 33.5391 3.84375 33.75 4.5 33.75H31.5ZM33.75 24.75V23.0625C33.7031 22.125 33.2812 21.4453 32.4844 21.0234L28.4766 18.9844C27.3047 18.4219 26.3906 17.6016 25.7344 16.5234C25.0781 15.4453 24.75 14.2734 24.75 13.0078C24.6562 9.96094 23.6016 7.42969 21.5859 5.41406C19.5703 3.39844 17.0625 2.34375 14.0625 2.25H13.0078C9.96094 2.34375 7.42969 3.39844 5.41406 5.41406C3.39844 7.42969 2.34375 9.96094 2.25 13.0078V24.75H33.75Z" fill="white"/>
</svg>
