<svg width="29" height="36" viewBox="0 0 29 36" fill="none" xmlns="http://www.w3.org/2000/svg">
<path d="M24.1875 4.5C25.3125 4.54688 26.25 4.92188 27 5.625C27.7031 6.375 28.0781 7.3125 28.125 8.4375V25.3125C28.0312 28.3594 26.9766 30.8672 24.9609 32.8359C22.9922 34.8516 20.4844 35.9062 17.4375 36H11.8828C9.30469 35.9531 7.00781 35.1562 4.99219 33.6094L1.75781 31.1484C0.632812 30.2109 0.046875 29.0156 0 27.5625V23.0625C0 22.0312 0.328125 21.1172 0.984375 20.3203C1.59375 19.5234 2.39062 18.9844 3.375 18.7031V3.9375C3.42188 2.8125 3.79688 1.875 4.5 1.125C5.25 0.421875 6.1875 0.046875 7.3125 0C8.4375 0.046875 9.375 0.421875 10.125 1.125C10.8281 1.875 11.2031 2.8125 11.25 3.9375V11.6719C11.7656 11.3906 12.3281 11.25 12.9375 11.25C14.3906 11.2969 15.4922 11.9297 16.2422 13.1484C16.9453 12.6328 17.7188 12.375 18.5625 12.375C19.1719 12.375 19.7344 12.5156 20.25 12.7969V8.4375C20.2969 7.3125 20.6719 6.375 21.375 5.625C22.125 4.92188 23.0625 4.54688 24.1875 4.5ZM18.5625 14.625C17.5312 14.7188 16.9688 15.2812 16.875 16.3125V23.0625C16.9688 24.0938 17.5312 24.6562 18.5625 24.75C19.5938 24.6562 20.1562 24.0938 20.25 23.0625V16.3125C20.1562 15.2812 19.5938 14.7188 18.5625 14.625ZM12.9375 13.5C11.9062 13.5938 11.3438 14.1562 11.25 15.1875V16.9453H11.4609C11.7422 16.8984 12.0469 16.875 12.375 16.875C13.1719 16.875 13.9219 17.0859 14.625 17.5078V15.1875C14.5312 14.1562 13.9688 13.5938 12.9375 13.5ZM7.3125 2.25C6.28125 2.34375 5.71875 2.90625 5.625 3.9375V18.2109L9 17.5078V3.9375C8.90625 2.90625 8.34375 2.34375 7.3125 2.25ZM25.875 25.3125V8.4375C25.7812 7.40625 25.2188 6.84375 24.1875 6.75C23.1562 6.84375 22.5938 7.40625 22.5 8.4375V15.75C22.5 15.7969 22.5 15.8438 22.5 15.8906C22.5 15.8906 22.4766 15.9141 22.4297 15.9609C22.4766 16.0078 22.5 16.0547 22.5 16.1016C22.5 16.1484 22.5 16.2188 22.5 16.3125V23.0625C22.4531 24.1875 22.0781 25.125 21.375 25.875C20.625 26.5781 19.6875 26.9531 18.5625 27C17.0156 26.9062 15.8672 26.2031 15.1172 24.8906C14.6016 25.3125 13.9922 25.6172 13.2891 25.8047L8.08594 26.8594C8.03906 26.9062 7.96875 26.9297 7.875 26.9297C7.21875 26.8828 6.84375 26.5078 6.75 25.8047C6.79688 25.2422 7.10156 24.8672 7.66406 24.6797L12.8672 23.5547C13.9922 23.2266 14.5781 22.5 14.625 21.375C14.5781 20.6719 14.3438 20.1328 13.9219 19.7578C13.4531 19.3359 12.9375 19.125 12.375 19.125C12.1875 19.125 12.0234 19.1484 11.8828 19.1953L4.00781 20.8828C2.92969 21.1641 2.34375 21.8906 2.25 23.0625V27.5625C2.25 28.3125 2.53125 28.8984 3.09375 29.3203L6.32812 31.8516C7.96875 33.1172 9.82031 33.75 11.8828 33.75H17.4375C19.8281 33.7031 21.8203 32.8828 23.4141 31.2891C25.0078 29.6953 25.8281 27.7031 25.875 25.3125Z" fill="white"/>
</svg>
