<svg width="36" height="36" viewBox="0 0 36 36" fill="none" xmlns="http://www.w3.org/2000/svg">
<path d="M29.25 24.75C28.5469 24.7031 28.1719 24.3281 28.125 23.625C28.1719 22.9219 28.5469 22.5469 29.25 22.5C29.9531 22.5469 30.3281 22.9219 30.375 23.625C30.3281 24.3281 29.9531 24.7031 29.25 24.75ZM24.75 24.75C24.0469 24.7031 23.6719 24.3281 23.625 23.625C23.6719 22.9219 24.0469 22.5469 24.75 22.5C25.4531 22.5469 25.8281 22.9219 25.875 23.625C25.8281 24.3281 25.4531 24.7031 24.75 24.75ZM27 28.125C26.2969 28.0781 25.9219 27.7031 25.875 27C25.9219 26.2969 26.2969 25.9219 27 25.875C27.7031 25.9219 28.0781 26.2969 28.125 27C28.0781 27.7031 27.7031 28.0781 27 28.125ZM20.25 24.75C19.5469 24.7031 19.1719 24.3281 19.125 23.625C19.1719 22.9219 19.5469 22.5469 20.25 22.5C20.9531 22.5469 21.3281 22.9219 21.375 23.625C21.3281 24.3281 20.9531 24.7031 20.25 24.75ZM22.5 28.125C21.7969 28.0781 21.4219 27.7031 21.375 27C21.4219 26.2969 21.7969 25.9219 22.5 25.875C23.2031 25.9219 23.5781 26.2969 23.625 27C23.5781 27.7031 23.2031 28.0781 22.5 28.125ZM11.25 29.25C11.9531 29.2969 12.3281 29.6719 12.375 30.375C12.3281 31.0781 11.9531 31.4531 11.25 31.5C10.5469 31.4531 10.1719 31.0781 10.125 30.375C10.1719 29.6719 10.5469 29.2969 11.25 29.25ZM29.25 29.25C29.9531 29.2969 30.3281 29.6719 30.375 30.375C30.3281 31.0781 29.9531 31.4531 29.25 31.5C28.5469 31.4531 28.1719 31.0781 28.125 30.375C28.1719 29.6719 28.5469 29.2969 29.25 29.25ZM15.75 29.25C16.4531 29.2969 16.8281 29.6719 16.875 30.375C16.8281 31.0781 16.4531 31.4531 15.75 31.5C15.0469 31.4531 14.6719 31.0781 14.625 30.375C14.6719 29.6719 15.0469 29.2969 15.75 29.25ZM18 28.125C17.2969 28.0781 16.9219 27.7031 16.875 27C16.9219 26.2969 17.2969 25.9219 18 25.875C18.7031 25.9219 19.0781 26.2969 19.125 27C19.0781 27.7031 18.7031 28.0781 18 28.125ZM20.25 29.25C20.9531 29.2969 21.3281 29.6719 21.375 30.375C21.3281 31.0781 20.9531 31.4531 20.25 31.5C19.5469 31.4531 19.1719 31.0781 19.125 30.375C19.1719 29.6719 19.5469 29.2969 20.25 29.25ZM24.75 29.25C25.4531 29.2969 25.8281 29.6719 25.875 30.375C25.8281 31.0781 25.4531 31.4531 24.75 31.5C24.0469 31.4531 23.6719 31.0781 23.625 30.375C23.6719 29.6719 24.0469 29.2969 24.75 29.25ZM15.75 24.75C15.0469 24.7031 14.6719 24.3281 14.625 23.625C14.6719 22.9219 15.0469 22.5469 15.75 22.5C16.4531 22.5469 16.8281 22.9219 16.875 23.625C16.8281 24.3281 16.4531 24.7031 15.75 24.75ZM32.625 4.5C33.5625 4.54688 34.3594 4.875 35.0156 5.48438C35.625 6.14062 35.9531 6.9375 36 7.875V32.625C35.9531 33.5625 35.625 34.3594 35.0156 35.0156C34.3594 35.625 33.5625 35.9531 32.625 36H3.375C2.4375 35.9531 1.64063 35.625 0.984375 35.0156C0.375 34.3594 0.046875 33.5625 0 32.625V7.875C0.046875 6.9375 0.375 6.14062 0.984375 5.48438C1.64063 4.875 2.4375 4.54688 3.375 4.5H8.78906C9.82031 3.46875 11.1328 2.48437 12.7266 1.54688C14.3203 0.5625 16.0781 0.046875 18 0C19.9219 0.046875 21.6797 0.5625 23.2734 1.54688C24.8672 2.48437 26.1797 3.46875 27.2109 4.5H32.625ZM18 2.25C16.9219 2.25 15.9141 2.48437 14.9766 2.95312C13.9922 3.375 13.0781 3.89062 12.2344 4.5H23.7656C22.9219 3.89062 22.0078 3.375 21.0234 2.95312C20.0859 2.48437 19.0781 2.25 18 2.25ZM33.75 32.625V20.25H2.25V32.625C2.29688 33.3281 2.67188 33.7031 3.375 33.75H32.625C33.3281 33.7031 33.7031 33.3281 33.75 32.625ZM33.75 18V7.875C33.7031 7.17188 33.3281 6.79688 32.625 6.75H3.375C2.67188 6.79688 2.29688 7.17188 2.25 7.875V18H33.75ZM6.75 24.75C6.04688 24.7031 5.67188 24.3281 5.625 23.625C5.67188 22.9219 6.04688 22.5469 6.75 22.5C7.45312 22.5469 7.82812 22.9219 7.875 23.625C7.82812 24.3281 7.45312 24.7031 6.75 24.75ZM6.75 31.5C6.04688 31.4531 5.67188 31.0781 5.625 30.375C5.67188 29.6719 6.04688 29.2969 6.75 29.25C7.45312 29.2969 7.82812 29.6719 7.875 30.375C7.82812 31.0781 7.45312 31.4531 6.75 31.5ZM11.25 24.75C10.5469 24.7031 10.1719 24.3281 10.125 23.625C10.1719 22.9219 10.5469 22.5469 11.25 22.5C11.9531 22.5469 12.3281 22.9219 12.375 23.625C12.3281 24.3281 11.9531 24.7031 11.25 24.75ZM13.5 28.125C12.7969 28.0781 12.4219 27.7031 12.375 27C12.4219 26.2969 12.7969 25.9219 13.5 25.875C14.2031 25.9219 14.5781 26.2969 14.625 27C14.5781 27.7031 14.2031 28.0781 13.5 28.125ZM9 28.125C8.29688 28.0781 7.92188 27.7031 7.875 27C7.92188 26.2969 8.29688 25.9219 9 25.875C9.70312 25.9219 10.0781 26.2969 10.125 27C10.0781 27.7031 9.70312 28.0781 9 28.125ZM6.75 10.6875C7.78125 10.7812 8.34375 11.3437 8.4375 12.375C8.34375 13.4063 7.78125 13.9688 6.75 14.0625C5.71875 13.9688 5.15625 13.4063 5.0625 12.375C5.15625 11.3437 5.71875 10.7812 6.75 10.6875ZM13.5 10.6875C14.5312 10.7812 15.0938 11.3437 15.1875 12.375C15.0938 13.4063 14.5312 13.9688 13.5 14.0625C12.4688 13.9688 11.9062 13.4063 11.8125 12.375C11.9062 11.3437 12.4688 10.7812 13.5 10.6875ZM22.5 10.6875C23.5312 10.7812 24.0938 11.3437 24.1875 12.375C24.0938 13.4063 23.5312 13.9688 22.5 14.0625C21.4688 13.9688 20.9062 13.4063 20.8125 12.375C20.9062 11.3437 21.4688 10.7812 22.5 10.6875ZM29.25 10.6875C30.2812 10.7812 30.8438 11.3437 30.9375 12.375C30.8438 13.4063 30.2812 13.9688 29.25 14.0625C28.2188 13.9688 27.6562 13.4063 27.5625 12.375C27.6562 11.3437 28.2188 10.7812 29.25 10.6875Z" fill="white"/>
</svg>
