<svg width="41" height="27" viewBox="0 0 41 27" fill="none" xmlns="http://www.w3.org/2000/svg">
<path d="M36 0C37.2656 0.046875 38.3203 0.492188 39.1641 1.33594C40.0078 2.17969 40.4531 3.23438 40.5 4.5V22.5C40.4531 23.7656 40.0078 24.8203 39.1641 25.6641C38.3203 26.5078 37.2656 26.9531 36 27H4.5C3.23438 26.9531 2.17969 26.5078 1.33594 25.6641C0.492188 24.8203 0.046875 23.7656 0 22.5V4.5C0.046875 3.23438 0.492188 2.17969 1.33594 1.33594C2.17969 0.492188 3.23438 0.046875 4.5 0H36ZM9 24.75V19.125H7.875C7.17188 19.0781 6.79688 18.7031 6.75 18V11.25H2.25V22.5C2.25 23.1562 2.46094 23.6953 2.88281 24.1172C3.30469 24.5391 3.84375 24.75 4.5 24.75H9ZM19.125 24.75V19.125H18C17.2969 19.0781 16.9219 18.7031 16.875 18V11.25H13.5V18C13.4531 18.7031 13.0781 19.0781 12.375 19.125H11.25V24.75H19.125ZM9 16.875H11.25V11.25H9V16.875ZM29.25 24.75V19.125H28.125C27.4219 19.0781 27.0469 18.7031 27 18V11.25H23.625V18C23.5781 18.7031 23.2031 19.0781 22.5 19.125H21.375V24.75H29.25ZM19.125 16.875H21.375V11.25H19.125V16.875ZM38.25 22.5V11.25H33.75V18C33.7031 18.7031 33.3281 19.0781 32.625 19.125H31.5V24.75H36C36.6562 24.75 37.1953 24.5391 37.6172 24.1172C38.0391 23.6953 38.25 23.1562 38.25 22.5ZM29.25 16.875H31.5V11.25H29.25V16.875ZM38.25 9V4.5C38.25 3.84375 38.0391 3.30469 37.6172 2.88281C37.1953 2.46094 36.6562 2.25 36 2.25H4.5C3.84375 2.25 3.30469 2.46094 2.88281 2.88281C2.46094 3.30469 2.25 3.84375 2.25 4.5V9H38.25Z" fill="white"/>
</svg>
