<svg width="21" height="24" viewBox="0 0 21 24" fill="none" xmlns="http://www.w3.org/2000/svg">
<path d="M18 0C18.8438 0.03125 19.5469 0.328125 20.1094 0.890625C20.6719 1.45312 20.9688 2.15625 21 3V18C20.9375 19.1562 20.4375 20.0156 19.5 20.5781V22.5C19.5 22.9375 19.3594 23.2969 19.0781 23.5781C18.7969 23.8594 18.4375 24 18 24H3C2.5625 24 2.20312 23.8594 1.92188 23.5781C1.64062 23.2969 1.5 22.9375 1.5 22.5V20.5781C0.5625 20.0156 0.0625 19.1562 0 18V3C0.03125 2.15625 0.328125 1.45312 0.890625 0.890625C1.45312 0.328125 2.15625 0.03125 3 0H18ZM18 22.5V21H3V22.5H18ZM19.5 18V3C19.5 2.5625 19.3594 2.20312 19.0781 1.92188C18.7969 1.64062 18.4375 1.5 18 1.5H3C2.5625 1.5 2.20312 1.64062 1.92188 1.92188C1.64062 2.20312 1.5 2.5625 1.5 3V18C1.5 18.4375 1.64062 18.7969 1.92188 19.0781C2.20312 19.3594 2.5625 19.5 3 19.5H18C18.4375 19.5 18.7969 19.3594 19.0781 19.0781C19.3594 18.7969 19.5 18.4375 19.5 18ZM14.9531 3C15.8281 3.03125 16.5469 3.32812 17.1094 3.89062C17.6719 4.45312 17.9688 5.15625 18 6V9C17.9688 9.84375 17.6719 10.5469 17.1094 11.1094C16.5469 11.6719 15.8281 11.9688 14.9531 12H5.95312C5.14062 11.9688 4.45312 11.6719 3.89062 11.1094C3.32812 10.5469 3.03125 9.84375 3 9L2.95312 6C2.98438 5.15625 3.28125 4.45312 3.84375 3.89062C4.40625 3.32812 5.10938 3.03125 5.95312 3H14.9531ZM16.5 9V6C16.5 5.5625 16.3594 5.20312 16.0781 4.92188C15.7969 4.64062 15.4375 4.5 15 4.5H6C5.5625 4.5 5.20312 4.64062 4.92188 4.92188C4.64062 5.20312 4.5 5.5625 4.5 6V9C4.5 9.4375 4.64062 9.79688 4.92188 10.0781C5.20312 10.3594 5.5625 10.5 6 10.5H15C15.4375 10.5 15.7969 10.3594 16.0781 10.0781C16.3594 9.79688 16.5 9.4375 16.5 9ZM4.5 14.625C5.1875 14.6875 5.5625 15.0625 5.625 15.75C5.5625 16.4375 5.1875 16.8125 4.5 16.875C3.8125 16.8125 3.4375 16.4375 3.375 15.75C3.4375 15.0625 3.8125 14.6875 4.5 14.625ZM17.25 15C17.7188 15.0312 17.9688 15.2812 18 15.75C17.9688 16.2188 17.7188 16.4688 17.25 16.5H11.25C10.7812 16.4688 10.5312 16.2188 10.5 15.75C10.5312 15.2812 10.7812 15.0312 11.25 15H17.25Z" fill="black"/>
</svg>
