<svg width="24" height="24" viewBox="0 0 24 24" fill="none" xmlns="http://www.w3.org/2000/svg">
<path d="M1.40625 0.75C1.4375 0.28125 1.6875 0.03125 2.15625 0H21.6562C22.125 0.03125 22.375 0.28125 22.4062 0.75C22.375 1.21875 22.125 1.46875 21.6562 1.5H2.15625C1.6875 1.46875 1.4375 1.21875 1.40625 0.75ZM0.65625 3.75C0.6875 3.28125 0.9375 3.03125 1.40625 3H22.4062C22.875 3.03125 23.125 3.28125 23.1562 3.75C23.125 4.21875 22.875 4.46875 22.4062 4.5H1.40625C0.9375 4.46875 0.6875 4.21875 0.65625 3.75ZM10.7812 15.1875C10.8438 14.5938 11.2188 14.2812 11.9062 14.25C12.5938 14.2812 12.9688 14.5938 13.0312 15.1875C12.9688 15.75 12.5938 16.0625 11.9062 16.125C11.2188 16.0625 10.8438 15.75 10.7812 15.1875ZM4.40625 15C4.46875 13.3125 5.20312 11.8906 6.60938 10.7344C8.01562 9.60938 9.78125 9.03125 11.9062 9C14.0312 9.03125 15.7969 9.60938 17.2031 10.7344C18.6094 11.8906 19.3438 13.3125 19.4062 15C19.3438 16.6875 18.6094 18.1094 17.2031 19.2656C15.7969 20.3906 14.0312 20.9688 11.9062 21C9.78125 20.9688 8.01562 20.3906 6.60938 19.2656C5.20312 18.1094 4.46875 16.6875 4.40625 15ZM11.9062 19.5C13.75 19.4375 15.2031 18.9688 16.2656 18.0938C17.3281 17.1875 17.875 16.1562 17.9062 15C17.875 13.8438 17.3281 12.8125 16.2656 11.9062C15.2031 11.0312 13.75 10.5625 11.9062 10.5C10.0625 10.5625 8.60938 11.0312 7.54688 11.9062C6.48438 12.8125 5.9375 13.8438 5.90625 15C5.9375 16.1562 6.48438 17.1875 7.54688 18.0938C8.60938 18.9688 10.0625 19.4375 11.9062 19.5ZM21.0938 6C21.9062 6.03125 22.5469 6.3125 23.0156 6.84375C23.5156 7.40625 23.7344 8.07812 23.6719 8.85938L22.5469 21.6094C22.4844 22.2969 22.2031 22.8594 21.7031 23.2969C21.2344 23.7656 20.6562 24 19.9688 24H3.89062C3.17188 24 2.57812 23.7656 2.10938 23.2969C1.60938 22.8594 1.32812 22.2969 1.26562 21.6094L0.09375 8.85938C0.03125 8.07812 0.25 7.40625 0.75 6.84375C1.25 6.3125 1.90625 6.03125 2.71875 6H21.0938ZM2.76562 21.4688C2.85938 22.0938 3.23438 22.4375 3.89062 22.5H19.9688C20.5938 22.4375 20.9531 22.0938 21.0469 21.4688L22.2188 8.71875C22.25 8.375 22.1562 8.09375 21.9375 7.875C21.7188 7.625 21.4375 7.5 21.0938 7.5H2.71875C2.375 7.5 2.09375 7.625 1.875 7.875C1.65625 8.09375 1.5625 8.375 1.59375 8.71875L2.76562 21.4688Z" fill="black"/>
</svg>
