<svg width="24" height="24" viewBox="0 0 24 24" fill="none" xmlns="http://www.w3.org/2000/svg">
<path d="M22.3594 12.6562C23.4219 13.25 23.9688 14.1562 24 15.375V21C23.9688 21.8438 23.6719 22.5469 23.1094 23.1094C22.5469 23.6719 21.8438 23.9688 21 24H3C2.15625 23.9688 1.45312 23.6719 0.890625 23.1094C0.328125 22.5469 0.03125 21.8438 0 21V8.67188C0.0625 6.20312 0.90625 4.15625 2.53125 2.53125C4.15625 0.90625 6.20312 0.0625 8.67188 0H9.375C11.8125 0.0625 13.8438 0.90625 15.4688 2.53125C17.0938 4.125 17.9375 6.14062 18 8.57812C18.0312 9.79688 18.5625 10.7031 19.5938 11.2969L22.3594 12.6562ZM21 22.5C21.4375 22.5 21.7969 22.3594 22.0781 22.0781C22.3594 21.7969 22.5 21.4375 22.5 21V18H20.25V19.5C20.2188 19.9688 19.9688 20.2188 19.5 20.25C19.0312 20.2188 18.7812 19.9688 18.75 19.5V18H17.25V19.5C17.2188 19.9688 16.9688 20.2188 16.5 20.25C16.0312 20.2188 15.7812 19.9688 15.75 19.5V18H11.25V19.5C11.2188 19.9688 10.9688 20.2188 10.5 20.25C10.0312 20.2188 9.78125 19.9688 9.75 19.5V18H8.25V19.5C8.21875 19.9688 7.95312 20.2188 7.45312 20.25C7.04688 20.2188 6.8125 19.9688 6.75 19.5V18H5.25V19.5C5.21875 19.9688 4.95312 20.2188 4.45312 20.25C4.04688 20.2188 3.8125 19.9688 3.75 19.5V18H1.5V21C1.5 21.4375 1.64062 21.7969 1.92188 22.0781C2.20312 22.3594 2.5625 22.5 3 22.5H21ZM22.5 16.5V15.375C22.4688 14.75 22.1875 14.2969 21.6562 14.0156L18.9844 12.6562C18.2031 12.2812 17.5938 11.7344 17.1562 11.0156C16.7188 10.2969 16.5 9.51562 16.5 8.67188C16.4375 6.64063 15.7344 4.95313 14.3906 3.60938C13.0469 2.26562 11.375 1.5625 9.375 1.5H8.67188C6.64062 1.5625 4.95312 2.26562 3.60938 3.60938C2.26562 4.95313 1.5625 6.64063 1.5 8.67188V16.5H22.5Z" fill="black"/>
</svg>
