<svg width="19" height="24" viewBox="0 0 19 24" fill="none" xmlns="http://www.w3.org/2000/svg">
<path d="M16.125 3C16.875 3.03125 17.5 3.28125 18 3.75C18.4688 4.25 18.7188 4.875 18.75 5.625V16.875C18.6875 18.9062 17.9844 20.5781 16.6406 21.8906C15.3281 23.2344 13.6562 23.9375 11.625 24H7.92188C6.20312 23.9688 4.67188 23.4375 3.32812 22.4062L1.17188 20.7656C0.421875 20.1406 0.03125 19.3438 0 18.375V15.375C0 14.6875 0.21875 14.0781 0.65625 13.5469C1.0625 13.0156 1.59375 12.6562 2.25 12.4688V2.625C2.28125 1.875 2.53125 1.25 3 0.75C3.5 0.28125 4.125 0.03125 4.875 0C5.625 0.03125 6.25 0.28125 6.75 0.75C7.21875 1.25 7.46875 1.875 7.5 2.625V7.78125C7.84375 7.59375 8.21875 7.5 8.625 7.5C9.59375 7.53125 10.3281 7.95313 10.8281 8.76562C11.2969 8.42188 11.8125 8.25 12.375 8.25C12.7812 8.25 13.1562 8.34375 13.5 8.53125V5.625C13.5312 4.875 13.7812 4.25 14.25 3.75C14.75 3.28125 15.375 3.03125 16.125 3ZM12.375 9.75C11.6875 9.8125 11.3125 10.1875 11.25 10.875V15.375C11.3125 16.0625 11.6875 16.4375 12.375 16.5C13.0625 16.4375 13.4375 16.0625 13.5 15.375V10.875C13.4375 10.1875 13.0625 9.8125 12.375 9.75ZM8.625 9C7.9375 9.0625 7.5625 9.4375 7.5 10.125V11.2969H7.64062C7.82812 11.2656 8.03125 11.25 8.25 11.25C8.78125 11.25 9.28125 11.3906 9.75 11.6719V10.125C9.6875 9.4375 9.3125 9.0625 8.625 9ZM4.875 1.5C4.1875 1.5625 3.8125 1.9375 3.75 2.625V12.1406L6 11.6719V2.625C5.9375 1.9375 5.5625 1.5625 4.875 1.5ZM17.25 16.875V5.625C17.1875 4.9375 16.8125 4.5625 16.125 4.5C15.4375 4.5625 15.0625 4.9375 15 5.625V10.5C15 10.5312 15 10.5625 15 10.5938C15 10.5938 14.9844 10.6094 14.9531 10.6406C14.9844 10.6719 15 10.7031 15 10.7344C15 10.7656 15 10.8125 15 10.875V15.375C14.9688 16.125 14.7188 16.75 14.25 17.25C13.75 17.7188 13.125 17.9688 12.375 18C11.3438 17.9375 10.5781 17.4688 10.0781 16.5938C9.73438 16.875 9.32812 17.0781 8.85938 17.2031L5.39062 17.9062C5.35938 17.9375 5.3125 17.9531 5.25 17.9531C4.8125 17.9219 4.5625 17.6719 4.5 17.2031C4.53125 16.8281 4.73438 16.5781 5.10938 16.4531L8.57812 15.7031C9.32812 15.4844 9.71875 15 9.75 14.25C9.71875 13.7812 9.5625 13.4219 9.28125 13.1719C8.96875 12.8906 8.625 12.75 8.25 12.75C8.125 12.75 8.01562 12.7656 7.92188 12.7969L2.67188 13.9219C1.95312 14.1094 1.5625 14.5938 1.5 15.375V18.375C1.5 18.875 1.6875 19.2656 2.0625 19.5469L4.21875 21.2344C5.3125 22.0781 6.54688 22.5 7.92188 22.5H11.625C13.2188 22.4688 14.5469 21.9219 15.6094 20.8594C16.6719 19.7969 17.2188 18.4688 17.25 16.875Z" fill="black"/>
</svg>
